<?xml version="1.0" encoding="UTF-8"?>
<svg width="16.003" height="16" xmlns="http://www.w3.org/2000/svg">
 <g fill="#2e3436" fill-rule="evenodd">
  <path d="M2.003 1v14h2V1z" font-family="sans-serif" font-weight="400" overflow="visible" style="font-feature-settings:normal;font-variant-alternates:normal;font-variant-caps:normal;font-variant-ligatures:normal;font-variant-numeric:normal;font-variant-position:normal;isolation:auto;mix-blend-mode:normal;shape-padding:0;text-decoration-color:#000;text-decoration-line:none;text-decoration-style:solid;text-indent:0;text-orientation:mixed;text-transform:none"/>
  <path d="M3.003 1a1 1 0 00-1 1v6a1 1 0 001 1h3.383l.722 1.447a1 1 0 00.895.553h5a1 1 0 001-1V4a1 1 0 00-1-1H9.62l-.722-1.447A1 1 0 008.003 1zm1 2h3.383l.722 1.447A1 1 0 009.003 5h3v4H8.62l-.722-1.447A1 1 0 007.003 7h-3z" font-family="sans-serif" font-weight="400" overflow="visible" style="font-feature-settings:normal;font-variant-alternates:normal;font-variant-caps:normal;font-variant-ligatures:normal;font-variant-numeric:normal;font-variant-position:normal;isolation:auto;mix-blend-mode:normal;shape-padding:0;text-decoration-color:#000;text-decoration-line:none;text-decoration-style:solid;text-indent:0;text-orientation:mixed;text-transform:none"/>
  <path d="M3.003 8h4l1 2h5V4h-4l-1-2h-5z"/>
 </g>
</svg>
