<?xml version="1.0" encoding="UTF-8"?>
<svg width="16.001" height="16.014" xmlns="http://www.w3.org/2000/svg">
 <path d="M.984 0A1 1 0 000 1.015v4s.007.844.574 1.6C1.022 7.21 1.832 7.734 3 7.928v1.086a1 1 0 00-1 1v5a1 1 0 001 1h2a1 1 0 001-1v-5a1 1 0 00-1-1V7.928c1.168-.195 1.978-.717 2.426-1.314.567-.756.574-1.6.574-1.6v-4a1 1 0 10-2 0v3.5a.5.5 0 01-1 0v-3.5A1 1 0 003.984.001 1 1 0 003 1.014v3.5a.5.5 0 01-1 0v-3.5A1 1 0 00.984.001zM13.97.014a1.002 1.002 0 00-.677.293c-1.736 1.736-2.503 4.161-2.898 6.137C10 8.419 10 10.014 10 10.014a1 1 0 001 1h1v4a1 1 0 001 1h1a1 1 0 001-1v-14a1 1 0 00-1.03-1z" fill="#2e3436" fill-rule="evenodd" font-family="sans-serif" font-weight="400" overflow="visible" style="font-feature-settings:normal;font-variant-alternates:normal;font-variant-caps:normal;font-variant-ligatures:normal;font-variant-numeric:normal;font-variant-position:normal;isolation:auto;mix-blend-mode:normal;shape-padding:0;text-decoration-color:#000;text-decoration-line:none;text-decoration-style:solid;text-indent:0;text-orientation:mixed;text-transform:none"/>
</svg>
