<?xml version="1.0" encoding="UTF-8"?>
<svg width="16.003" height="16" xmlns="http://www.w3.org/2000/svg">
 <path d="M3.003 1a1 1 0 00-.97.758l-1 4a1 1 0 00-.03.242v.04c-.564.094-1 .561-1 1.153v4.614c0 .592.436 1.059 1 1.154V14.5c0 .277.223.5.5.5h2c.277 0 .5-.223.5-.5V13h8v1.5c0 .277.223.5.5.5h2c.277 0 .5-.223.5-.5v-1.54c.564-.094 1-.561 1-1.153V7.193c0-.592-.436-1.059-1-1.154V6a1 1 0 00-.03-.242l-1-4a1 1 0 00-.97-.758zm.781 2h8.438l.75 3H3.034zm-.281 5a1.5 1.5 0 011.5 1.5 1.5 1.5 0 01-1.5 1.5 1.5 1.5 0 01-1.5-1.5 1.5 1.5 0 011.5-1.5zm9 0a1.5 1.5 0 011.5 1.5 1.5 1.5 0 01-1.5 1.5 1.5 1.5 0 01-1.5-1.5 1.5 1.5 0 011.5-1.5z" fill="#2e3436" fill-rule="evenodd" font-family="sans-serif" font-weight="400" overflow="visible" style="font-feature-settings:normal;font-variant-alternates:normal;font-variant-caps:normal;font-variant-ligatures:normal;font-variant-numeric:normal;font-variant-position:normal;isolation:auto;mix-blend-mode:normal;shape-padding:0;text-decoration-color:#000;text-decoration-line:none;text-decoration-style:solid;text-indent:0;text-orientation:mixed;text-transform:none"/>
</svg>
