<?xml version="1.0" encoding="UTF-8"?>
<svg id="svg4043" width="16" height="16" version="1.1" viewBox="0 0 16 16" xmlns="http://www.w3.org/2000/svg" xmlns:cc="http://creativecommons.org/ns#" xmlns:dc="http://purl.org/dc/elements/1.1/" xmlns:rdf="http://www.w3.org/1999/02/22-rdf-syntax-ns#">
 <metadata id="metadata4040">
  <rdf:RDF>
   <cc:Work rdf:about="">
    <dc:format>image/svg+xml</dc:format>
    <dc:type rdf:resource="http://purl.org/dc/dcmitype/StillImage"/>
    <dc:title/>
   </cc:Work>
  </rdf:RDF>
 </metadata>
 <g id="g2991" transform="translate(-460 -332)" style="enable-background:new">
  <path id="path2801" transform="translate(460 332)" d="m8 4c-1.4532 0-2.7212 0.79707-3.4219 1.9668-0.48838-0.44007-1.1265-0.7168-1.8281-0.7168-1.5069 0-2.75 1.2431-2.75 2.75s1.2431 2.75 2.75 2.75c0.70159 0 1.3397-0.27673 1.8281-0.7168 0.70067 1.1697 1.9686 1.9668 3.4219 1.9668s2.7212-0.79707 3.4219-1.9668c0.48838 0.44007 1.1265 0.7168 1.8281 0.7168 1.5069 0 2.75-1.2431 2.75-2.75s-1.2431-2.75-2.75-2.75c-0.70159 0-1.3397 0.27673-1.8281 0.7168-0.70067-1.1697-1.9686-1.9668-3.4219-1.9668zm0 2c1.1164 0 2 0.88359 2 2s-0.88359 2-2 2-2-0.88359-2-2 0.88359-2 2-2zm-5.25 1.25c0.42606 0 0.75 0.32394 0.75 0.75s-0.32394 0.75-0.75 0.75-0.75-0.32394-0.75-0.75 0.32394-0.75 0.75-0.75zm10.5 0c0.42606 0 0.75 0.32394 0.75 0.75s-0.32394 0.75-0.75 0.75-0.75-0.32394-0.75-0.75 0.32394-0.75 0.75-0.75z" style="color-rendering:auto;color:#000000;dominant-baseline:auto;enable-background:accumulate;fill:#241f31;font-feature-settings:normal;font-variant-alternates:normal;font-variant-caps:normal;font-variant-ligatures:normal;font-variant-numeric:normal;font-variant-position:normal;image-rendering:auto;isolation:auto;mix-blend-mode:normal;shape-padding:0;shape-rendering:auto;solid-color:#000000;text-decoration-color:#000000;text-decoration-line:none;text-decoration-style:solid;text-indent:0;text-orientation:mixed;text-transform:none;white-space:normal"/>
 </g>
</svg>
