<?xml version="1.0" encoding="UTF-8"?>
<svg id="svg4043" width="16" height="16" version="1.1" viewBox="0 0 16 16" xmlns="http://www.w3.org/2000/svg" xmlns:cc="http://creativecommons.org/ns#" xmlns:dc="http://purl.org/dc/elements/1.1/" xmlns:rdf="http://www.w3.org/1999/02/22-rdf-syntax-ns#">
 <metadata id="metadata4040">
  <rdf:RDF>
   <cc:Work rdf:about="">
    <dc:format>image/svg+xml</dc:format>
    <dc:type rdf:resource="http://purl.org/dc/dcmitype/StillImage"/>
    <dc:title/>
   </cc:Work>
  </rdf:RDF>
 </metadata>
 <path id="path2832" d="m11.758 3.8764-0.31138 1.5036c-0.0356 0.16014-0.18683 0.30249-0.37367 0.30249h-2.7046c-0.30249 0-0.55161 0.24911-0.55161 0.5516v0.32918c0 0.3025 0.24912 0.5516 0.55161 0.5516h2.2865c0.21353 0 0.39146 0.20463 0.34697 0.42705-0.0444 0.23131-0.28469 1.4057-0.31138 1.5303-0.0178 0.13344-0.16014 0.3025-0.37367 0.3025h-1.8683c-0.39146 8e-3 -0.47152 0.0178-0.70284 0.30248-0.23132 0.2847-2.2776 2.847-2.2776 2.847-0.0178 0.0266-0.0356 0.0178-0.0356-8e-3v-8.71c0-0.20463 0.16904-0.37366 0.37367-0.37366h5.6139c0.19572 0 0.39145 0.19573 0.33806 0.44484m0.40926-1.8772h-6.9306c-0.95196 0-1.2366 0.72064-1.2366 1.1744v11.014c0 0.54271 0.27579 0.70285 0.42704 0.76513 0.15124 0.0622 0.5516 0.10681 0.83629-0.17794 0 0 3.2918-3.8345 3.3452-3.8968 0.0534-0.0622 0.08-0.0622 0.11564-0.0622h2.0818c0.88968 0 1.0587-0.61389 1.1566-0.98755 0.08-0.31139 0.99645-4.7598 1.2811-6.1655 0.21353-1.0854-0.0622-1.6637-1.0765-1.6637" style="enable-background:new;fill:#241f31"/>
</svg>
