<?xml version="1.0" encoding="UTF-8"?>
<svg id="svg4043" width="16" height="16" version="1.1" viewBox="0 0 16 16" xmlns="http://www.w3.org/2000/svg" xmlns:cc="http://creativecommons.org/ns#" xmlns:dc="http://purl.org/dc/elements/1.1/" xmlns:rdf="http://www.w3.org/1999/02/22-rdf-syntax-ns#">
 <metadata id="metadata4040">
  <rdf:RDF>
   <cc:Work rdf:about="">
    <dc:format>image/svg+xml</dc:format>
    <dc:type rdf:resource="http://purl.org/dc/dcmitype/StillImage"/>
    <dc:title/>
   </cc:Work>
  </rdf:RDF>
 </metadata>
 <path id="path4060-7" d="m5.0933 2.4076c-0.53428 0.00813-1.0855 0.016086-1.2251 0.017792l-0.25365 0.00301-3.279e-4 0.73259c-8.547e-4 1.9145 0.045926 6.763 0.066917 6.9348 0.023581 0.19284 0.029733 0.22523 0.10642 0.56183 0.21268 0.93347 0.90697 1.9069 1.6511 2.3151 0.59321 0.32537 1.0663 0.49166 1.6971 0.59653 0.61447 0.10212 2.3448 0.01184 3.4298-0.17896 0.10092-0.01779 0.27577-0.04798 0.38856-0.0672 0.47442-0.0807 0.80546-0.14641 1.1765-0.23355 0.04749-0.01113 0.12434-0.02655 0.17075-0.03421l0.08441-0.01394-0.01538-5.3004c-0.01182-4.0777-0.02137-5.3043-0.04123-5.3173-0.01419-0.00925-0.66212-0.014495-1.4398-0.011614l-1.4139 0.0053-0.0055 4.1368-0.0055 4.1368-2.6875-0.0114-0.010752-2.732-0.010792-2.7321-1.1483-0.022044 0.29121-0.6059c0.16017-0.33324 0.4598-0.95093 0.6659-1.3726 0.20605-0.42165 0.37464-0.78106 0.37464-0.79868 0-0.035743-0.052351-0.035964-1.8457-0.00875" style="enable-background:new;fill:#241f31;stroke-width:.054522"/>
</svg>
