<?xml version="1.0" encoding="UTF-8"?>
<svg width="16" height="16" xmlns="http://www.w3.org/2000/svg">
 <g fill="#2e3436">
  <path d="M5.469.04c-.489 0-.794.213-1.03.452C4.204.732 4 1.046 4 1.52v.501H2v13.916l12.002.003V2.02H12v-.415a1.616 1.616 0 00-.418-1.012c-.236-.278-.62-.583-1.197-.55l.054-.003zm.529 1.995l4.006.002v1.98h2v9.924H3.996V4.018h2.002z" color="#bebebe" font-family="sans-serif" font-weight="400" opacity=".5" overflow="visible" style="font-feature-settings:normal;font-variant-alternates:normal;font-variant-caps:normal;font-variant-ligatures:normal;font-variant-numeric:normal;font-variant-position:normal;isolation:auto;mix-blend-mode:normal;shape-padding:0;text-decoration-color:#000;text-decoration-line:none;text-decoration-style:solid;text-indent:0;text-orientation:mixed;text-transform:none;white-space:normal"/>
  <path d="M8.957 5.002a1 1 0 00-.664.291l-3 3A1 1 0 006 10h.984l.17.002-.98 1.434a1 1 0 001.533 1.271l3-3A1 1 0 0010 8H8.87l.962-1.445a1 1 0 00-.875-1.553z" color="#bebebe" font-family="sans-serif" font-weight="400" overflow="visible" style="font-feature-settings:normal;font-variant-alternates:normal;font-variant-caps:normal;font-variant-ligatures:normal;font-variant-numeric:normal;font-variant-position:normal;isolation:auto;mix-blend-mode:normal;shape-padding:0;text-decoration-color:#000;text-decoration-line:none;text-decoration-style:solid;text-indent:0;text-orientation:mixed;text-transform:none;white-space:normal"/>
  <path d="M5 9h1v1H5zm4-4h1v1H9zm-3 7h1v1H6zm4-4h1v1h-1z"/>
 </g>
</svg>
