<?xml version="1.0" encoding="UTF-8"?>
<svg id="svg4" width="290" height="320" version="1.1" xmlns="http://www.w3.org/2000/svg" xmlns:cc="http://creativecommons.org/ns#" xmlns:dc="http://purl.org/dc/elements/1.1/" xmlns:rdf="http://www.w3.org/1999/02/22-rdf-syntax-ns#">
 <metadata id="metadata10">
  <rdf:RDF>
   <cc:Work rdf:about="">
    <dc:format>image/svg+xml</dc:format>
    <dc:type rdf:resource="http://purl.org/dc/dcmitype/StillImage"/>
    <dc:title/>
   </cc:Work>
  </rdf:RDF>
 </metadata>
 <path id="path2" d="m143.7 318.84c-13.559-2.6528-30.533-10.316-42.205-19.053-7.1733-5.3698-10.544-8.2433-8.3589-7.1258 0.58463 0.29896 4.8896 2.7194 9.5666 5.3786 11.259 6.4018 23.666 11.8 39.861 17.344 12.968 4.4396 13.436 5.8624 1.136 3.4558zm19.06-3.1148c-6.1386-1.0874-15.466-3.2215-20.728-4.7425-21.313-6.1612-51.707-20.027-56.581-25.812-11.751-14.801-21.233-31.623-24.271-50.434l-0.75862-5.2128c4.5662 2.8143 8.4175 7.0129 12.268 10.059 4.1448 3.2205 4.0017 2.9527-1.8011-3.3682-7.3623-8.0199-14.887-19.251-17.199-25.671-0.89539-2.4864-2.5183-12.029-3.6064-21.206-2.2642-19.096-5.312-32.372-9.614-41.878-3.3515-7.4056-12.155-17.378-17.17-19.45l-3.2961-1.3617 4.145-1.4313c9.1767-3.1688 23.414-2.6287 37.544 1.4243 2.1754 0.62396 2.4579 0.44349 1.8359-1.173-1.3154-3.4191-5.8209-27.406-6.476-34.477l-0.63836-6.8913 2.5804 4.7956c3.267 6.0718 12.092 14.354 18.136 17.021 2.5587 1.1289 6.9533 2.3671 9.7657 2.7516l5.1136 0.69906-3.8737-4.5138c-9.8563-11.485-15.738-28.547-15.711-45.572 0.01814-11.258 0.98209-14.539 2.9843-10.156 2.0433 4.473 10.755 13.054 16.554 16.305 6.6357 3.7205 12.982 5.8074 26.152 8.5998 20.722 4.3937 31.185 12.782 36.837 29.532 2.0114 5.9615 2.753 7.0438 4.8262 7.0438 1.9834 0 3.1838-1.4778 6.3071-7.7646 4.9997-10.064 6.6149-17.947 6.0579-29.567-0.37028-7.7249-1.0399-10.614-3.8456-16.594-1.8685-3.9826-4.8759-9.103-6.683-11.379-1.8072-2.2758-2.851-4.1378-2.3196-4.1378 0.53136 0 4.2892 1.1273 8.3509 2.5052 20.827 7.0653 37.398 18.514 47.761 32.999 11.566 16.167 15.768 33.698 10.548 44.011-4.9533 9.7856-19.111 12.195-34.717 5.9072-3.6216-1.459-6.755-2.4829-6.9632-2.2753-1.5705 1.5665 16.903 10.652 25.117 12.353 15.213 3.15 23.346-1.5496 27.268-15.757 0.75887-2.7493 1.4225-4.0181 1.4748-2.8196 0.0523 1.1984 2.4991 6.8743 5.4374 12.613 4.7958 9.3664 5.323 11.077 5.1533 16.721-0.21936 7.2946-0.77232 7.8432-11.559 11.47-16.555 5.5658-48.292-0.69766-73.107-14.428-4.3034-2.3811-4.6483-2.4497-2.4142-0.47985 7.643 6.739 29.817 17.09 45.758 21.361 7.1552 1.9168 11.919 2.4302 22.895 2.4676 13.122 0.045 14.163-0.10923 19.549-2.8952 3.1292-1.6184 5.8455-2.7869 6.0361-2.5968 0.19041 0.19011 2.2661 4.3768 4.6122 9.3037l4.2656 8.9579-2.4668 2.1891c-1.3568 1.204-6.4894 3.5391-11.406 5.1891-7.9537 2.6693-10.404 2.9964-22.226 2.967-23.088-0.0575-47.482-6.6447-74.141-20.021-8.3309-4.18-15.147-7.478-15.147-7.3288 0 0.72744 12.83 8.6261 21.549 13.266 29.048 15.46 66.156 24.519 87.479 21.356 9.728-1.4431 15.932-4.0797 15.732-6.6863-0.0751-0.98517 0.48221-2.0282 1.2389-2.3178 1.3808-0.52845 2.7806 4.029 4.236 13.792 0.59016 3.9589 0.36396 4.5814-2.3424 6.4453-3.7142 2.558-13.119 6.2642-19.471 7.6733-7.3962 1.6406-30.331 1.3141-41.534-0.59131-24.854-4.2271-54.865-15.345-78.315-29.013-8.1122-4.7282-6.8368-2.9388 1.8752 2.631 44.906 28.709 105.77 43.393 133.94 32.317 2.9528-1.1608 5.6458-2.1106 5.9846-2.1106 0.87846 0-0.72732 13.964-1.8469 16.061-1.2318 2.3071-14.745 7.8401-22.694 9.2922-9.0701 1.6568-30.309 1.4106-42.043-0.48741-28.49-4.6083-60.716-16.167-86.38-30.983-5.1155-2.9531-9.3009-5.1528-9.3009-4.8879 0 1.2507 20.987 13.804 32.397 19.379 45.351 22.157 92.527 31.013 121.47 22.804 3.253-0.92277 3.0649 0.29707-1.4484 9.3947-4.1813 8.4282-5.8891 9.6209-18.687 13.049-31.496 8.4376-91.569-5.3941-137.18-31.586-5.7001-3.2731-10.364-5.7426-10.364-5.4878 0 1.0982 18.989 12.67 30.071 18.325 33.436 17.062 72.025 27.973 99.078 28.014 7.0155 0.0113 15.191-0.1799 18.167-0.42289l5.4118-0.44194-3.7994 4.5329c-7.2569 8.6578-12.713 10.901-30.409 12.501-29.215 2.6419-81.537-12.051-117.7-33.052-5.4195-3.1472-8.4477-4.5575-6.7294-3.134 1.7183 1.4236 8.1147 5.5532 14.214 9.1772 30.37 18.044 75.304 32.989 99.852 33.21 5.4074 0.0491 9.832 0.44651 9.8324 0.88384 4.1e-4 0.43733 1.077 0.81672 2.3924 0.84306 3.5725 0.0718-5.2919 4.5836-15.468 7.8732-10.09 3.2618-19.613 3.4034-35.82 0.53269zm87.157-192.43c-0.65657-1.7322-2.5435-5.2962-4.1931-7.9202-6.1725-9.8184-6.4319-16.79-0.81989-22.041l2.3608-2.2089 0.23263 3.2336c0.12775 1.7785 1.7672 5.6191 3.6429 8.5346 4.4935 6.9844 5.3621 15.058 2.1622 20.099l-2.1916 3.4523zm-106.04-49.968c-4.2666-4.3199-9.1833-6.8663-23.61-12.227-15.574-5.7875-29.497-12.696-34.843-17.289-8.8619-7.6135-13.102-18.101-13.101-32.401 0.0011-12.581 0.60597-13.724 4.4574-8.4212 5.3638 7.3853 9.4699 9.7992 30.708 18.052 13.53 5.258 19.295 8.8324 26.5 16.431 7.3968 7.8008 11.506 16.841 12.929 28.444 0.62101 5.0637 0.97223 9.594 0.78051 10.067-0.19174 0.47327-1.911-0.72147-3.8206-2.6549z"/>
</svg>
