<?xml version="1.0" encoding="UTF-8"?>
<svg id="svg11300" width="128" height="128" style="enable-background:new" version="1.0" viewBox="0 0 128 128" xmlns="http://www.w3.org/2000/svg" xmlns:cc="http://creativecommons.org/ns#" xmlns:dc="http://purl.org/dc/elements/1.1/" xmlns:rdf="http://www.w3.org/1999/02/22-rdf-syntax-ns#">
 <title id="title4162">Adwaita Icon Template</title>
 <metadata id="metadata4">
  <rdf:RDF>
   <cc:Work rdf:about="">
    <dc:format>image/svg+xml</dc:format>
    <dc:type rdf:resource="http://purl.org/dc/dcmitype/StillImage"/>
    <dc:creator>
     <cc:Agent>
      <dc:title>GNOME Design Team</dc:title>
     </cc:Agent>
    </dc:creator>
    <dc:source/>
    <cc:license rdf:resource="http://creativecommons.org/licenses/by-sa/4.0/"/>
    <dc:title>Adwaita Icon Template</dc:title>
    <dc:subject>
     <rdf:Bag/>
    </dc:subject>
    <dc:date/>
    <dc:rights>
     <cc:Agent>
      <dc:title/>
     </cc:Agent>
    </dc:rights>
    <dc:publisher>
     <cc:Agent>
      <dc:title/>
     </cc:Agent>
    </dc:publisher>
    <dc:identifier/>
    <dc:relation/>
    <dc:language/>
    <dc:coverage/>
    <dc:description/>
    <dc:contributor>
     <cc:Agent>
      <dc:title/>
     </cc:Agent>
    </dc:contributor>
   </cc:Work>
   <cc:License rdf:about="http://creativecommons.org/licenses/by-sa/4.0/">
    <cc:permits rdf:resource="http://creativecommons.org/ns#Reproduction"/>
    <cc:permits rdf:resource="http://creativecommons.org/ns#Distribution"/>
    <cc:requires rdf:resource="http://creativecommons.org/ns#Notice"/>
    <cc:requires rdf:resource="http://creativecommons.org/ns#Attribution"/>
    <cc:permits rdf:resource="http://creativecommons.org/ns#DerivativeWorks"/>
    <cc:requires rdf:resource="http://creativecommons.org/ns#ShareAlike"/>
   </cc:License>
  </rdf:RDF>
 </metadata>
 <g id="layer1" transform="translate(0,-172)">
  <g id="layer9">
   <g id="g3930" transform="translate(-300 -160)" style="enable-background:new">
    <g id="g2139" transform="translate(668 160)" style="enable-background:new">
     <rect id="rect2137" x="-356" y="184" width="104" height="104" rx="8" ry="8" style="enable-background:new;fill:#0082c9;paint-order:normal"/>
    </g>
    <path id="path8670-3" d="m364.06 378c-8.2368 0-15.156 5.6406-17.269 13.23-1.845-4.0591-5.9055-6.9354-10.624-6.9354-6.4214 1e-3 -11.704 5.2821-11.704 11.705-1e-3 6.4247 5.2801 11.706 11.703 11.707 4.7194-1e-3 8.7772-2.8796 10.622-6.9387 2.1126 7.5897 9.0328 13.232 17.272 13.232 8.1933 1e-3 15.077-5.5793 17.233-13.104 1.8747 3.984 5.8732 6.8096 10.537 6.8102 6.4247 0 11.707-5.2821 11.707-11.707 0-6.4247-5.2815-11.705-11.706-11.704-4.664 1e-3 -8.6651 2.8268-10.539 6.8109-2.1574-7.5252-9.0388-13.106-17.231-13.105zm0 6.8708a11.077 11.077 0 0 1 11.13 11.128c0 6.1875-4.9421 11.131-11.13 11.13a11.077 11.077 0 0 1-11.127-11.13c0-6.1875 4.9421-11.128 11.128-11.128zm-27.893 6.2943c2.7109 0 4.8334 2.1231 4.834 4.8333 0 2.7109-2.1218 4.8367-4.8334 4.8367-2.7102 0-4.8334-2.1258-4.8327-4.8367 0-2.7102 2.1231-4.8333 4.8334-4.8333zm55.664 0c2.7109 0 4.8353 2.1218 4.8353 4.8333 0 2.7116-2.1238 4.8367-4.8353 4.8367-2.7109 0-4.834-2.1258-4.8334-4.8367 0-2.7102 2.1231-4.8333 4.8334-4.8333z" style="color:#000000;enable-background:new;fill:#fff;isolation:auto;mix-blend-mode:normal;text-decoration-color:#000000;text-decoration-line:none;text-decoration-style:solid;text-indent:0;text-transform:none;white-space:normal"/>
   </g>
  </g>
 </g>
</svg>
