<?xml version="1.0" encoding="UTF-8"?>
<svg width="64" height="64" xmlns="http://www.w3.org/2000/svg" xmlns:xlink="http://www.w3.org/1999/xlink">
 <g transform="translate(1.978 1.979) scale(.22488)">
  <path d="m266.63 133.51c0-73.525-59.604-133.13-133.13-133.13-73.491 0-133.07 59.554-133.12 133.04v103.02c0.04 16.685 13.571 30.191 30.266 30.191h102.91c73.5-0.029 133.07-59.613 133.07-133.12" fill="#294172"/>
  <path id="a" d="m77.126 142.1h47.845v47.844c0 26.41-21.434 47.845-47.845 47.845-26.41 0-47.844-21.434-47.844-47.845 0-26.41 21.434-47.844 47.844-47.844z" fill="none" stroke="#3c6eb4" stroke-width="29.21"/>
  <use transform="rotate(180 124.86 142.14)" width="1" height="1" xlink:href="#a"/>
  <path id="b" d="M139.607 127.53v62.345c0 34.504-27.975 62.48-62.48 62.48-5.235 0-8.957-.59-13.803-1.857-7.066-1.85-12.84-7.643-12.842-14.381 0-8.146 5.912-14.07 14.75-14.07 4.206 0 5.733.807 11.895.807 18.191 0 32.947-14.735 32.98-32.926V161.27a4.654 4.654 0 0 0-4.66-4.648l-21.665-.004c-8.072 0-14.594-6.439-14.594-14.533-.004-8.144 6.59-14.556 14.749-14.556" fill="#fff"/>
  <use transform="rotate(180 124.86 142.14)" width="1" height="1" xlink:href="#b"/>
  <path d="m243.66 243.58v-5.531l-2.529 5.798-2.461-5.798v5.531h-1.418v-8.735h1.487l2.434 5.58 2.397-5.58h1.505v8.735zm-10.333-7.272v7.272h-1.483v-7.272h-2.484v-1.463h6.449v1.463" fill="#3c6eb4"/>
 </g>
</svg>
