<?xml version="1.0" encoding="UTF-8"?>
<!-- Created with Inkscape (http://www.inkscape.org/) -->
<svg id="svg11300" width="128" height="128" style="enable-background:new" version="1.0" viewBox="0 0 128 128" xmlns="http://www.w3.org/2000/svg" xmlns:cc="http://creativecommons.org/ns#" xmlns:dc="http://purl.org/dc/elements/1.1/" xmlns:rdf="http://www.w3.org/1999/02/22-rdf-syntax-ns#" xmlns:xlink="http://www.w3.org/1999/xlink">
 <title id="title4162">Adwaita Icon Template</title>
 <defs id="defs3">
  <linearGradient id="linearGradient882">
   <stop id="stop878" style="stop-color:#fff" offset="0"/>
   <stop id="stop880" style="stop-color:#fff;stop-opacity:.28033" offset="1"/>
  </linearGradient>
  <clipPath id="clipPath1015">
   <path id="path1017" d="m64 176a60 60 0 0 0-60 60 60 60 0 0 0 60 60 60 60 0 0 0 60-60 60 60 0 0 0-60-60zm0 26a34 34 0 0 1 34 34 34 34 0 0 1-34 34 34 34 0 0 1-34-34 34 34 0 0 1 34-34z" style="enable-background:new;fill:none;paint-order:normal;stroke-width:2;stroke:#000"/>
  </clipPath>
  <linearGradient id="linearGradient884" x1="64.016" x2="64.016" y1="189.81" y2="312.89" gradientTransform="matrix(1.04 0 0 1.04 -2.5768 -9.4035)" gradientUnits="userSpaceOnUse" xlink:href="#linearGradient882"/>
  <linearGradient id="linearGradient892" x1="-80" x2="-80" y1="-274.09" y2="-244" gradientUnits="userSpaceOnUse" xlink:href="#linearGradient882"/>
  <filter id="filter1031" x="-.12" y="-.12" width="1.24" height="1.24" style="color-interpolation-filters:sRGB">
   <feGaussianBlur id="feGaussianBlur1033" stdDeviation="4.2"/>
  </filter>
  <filter id="filter1047" x="-.096" y="-.096" width="1.192" height="1.192" style="color-interpolation-filters:sRGB">
   <feGaussianBlur id="feGaussianBlur1049" stdDeviation="4.16"/>
  </filter>
 </defs>
 <metadata id="metadata4">
  <rdf:RDF>
   <cc:Work rdf:about="">
    <dc:format>image/svg+xml</dc:format>
    <dc:type rdf:resource="http://purl.org/dc/dcmitype/StillImage"/>
    <dc:creator>
     <cc:Agent>
      <dc:title>GNOME Design Team</dc:title>
     </cc:Agent>
    </dc:creator>
    <dc:source/>
    <cc:license rdf:resource="http://creativecommons.org/licenses/by-sa/4.0/"/>
    <dc:title>Adwaita Icon Template</dc:title>
    <dc:subject>
     <rdf:Bag/>
    </dc:subject>
    <dc:date/>
    <dc:rights>
     <cc:Agent>
      <dc:title/>
     </cc:Agent>
    </dc:rights>
    <dc:publisher>
     <cc:Agent>
      <dc:title/>
     </cc:Agent>
    </dc:publisher>
    <dc:identifier/>
    <dc:relation/>
    <dc:language/>
    <dc:coverage/>
    <dc:description/>
    <dc:contributor>
     <cc:Agent>
      <dc:title/>
     </cc:Agent>
    </dc:contributor>
   </cc:Work>
   <cc:License rdf:about="http://creativecommons.org/licenses/by-sa/4.0/">
    <cc:permits rdf:resource="http://creativecommons.org/ns#Reproduction"/>
    <cc:permits rdf:resource="http://creativecommons.org/ns#Distribution"/>
    <cc:requires rdf:resource="http://creativecommons.org/ns#Notice"/>
    <cc:requires rdf:resource="http://creativecommons.org/ns#Attribution"/>
    <cc:permits rdf:resource="http://creativecommons.org/ns#DerivativeWorks"/>
    <cc:requires rdf:resource="http://creativecommons.org/ns#ShareAlike"/>
   </cc:License>
  </rdf:RDF>
 </metadata>
 <g id="layer1" transform="translate(0,-172)">
  <g id="layer2" style="display:none">
   <text id="context" x="7.9499588" y="148.65199" style="display:inline;enable-background:new;fill:#000000;font-family:Cantarell;font-size:5.3333px;line-height:125%;stroke-width:.33265" xml:space="preserve"><tspan id="tspan2716" x="7.9499588" y="148.65199" style="font-size:5.3333px;stroke-width:.33265">apps</tspan></text>
   <text id="text3021" x="7.7533054" y="157.23398" style="display:inline;enable-background:new;fill:#000000;font-family:Cantarell;font-size:5.3333px;font-weight:bold;line-height:125%;stroke-width:.33265" xml:space="preserve"><tspan id="tspan3023" x="7.7533054" y="157.23398" style="font-size:5.3333px;stroke-width:.33265">org.gnome.Help</tspan></text>
   <rect id="rect13805" x="9.2651e-8" y="172" width="128" height="128" style="display:inline;enable-background:accumulate;fill:#f0f0f0"/>
   <g id="g1168" transform="matrix(.25 0 0 .25 6.9489e-8 225)">
    <circle id="path1142" cx="256" cy="44" r="240" style="fill:#2864b0;opacity:.1;paint-order:normal"/>
    <rect id="rect1110" x="96" y="-180" width="320" height="448" rx="32" ry="32" style="fill:#2864b0;opacity:.1;paint-order:normal"/>
    <rect id="rect1110-8" x="48" y="-164" width="416" height="416" rx="32" ry="32" style="display:inline;enable-background:new;fill:#2864b0;opacity:.1;paint-order:normal"/>
    <rect id="rect1110-8-9" x="32" y="-116" width="448" height="320" rx="32" ry="32" style="display:inline;enable-background:new;fill:#2864b0;opacity:.1;paint-order:normal"/>
   </g>
  </g>
  <g id="layer9">
   <use id="use1199" transform="matrix(-1 0 0 1 128 -2.7347e-8)" width="100%" height="100%" style="enable-background:new;stroke-width:.95652" xlink:href="#path1082"/>
   <use id="use1199-0" transform="rotate(180 64.001 236.01)" width="100%" height="100%" style="enable-background:new;stroke-width:.95652" xlink:href="#path1082"/>
   <use id="use1201" transform="matrix(1 0 0 -1 -5.2273e-6 472.01)" width="100%" height="100%" style="enable-background:new;stroke-width:.95652" xlink:href="#path1082"/>
   <path id="path1082" d="m16.642 237.39a34.5 34.5 0 0 1 0.26206-46.966 34.5 34.5 0 0 1 46.858-3.185" style="enable-background:new;fill:none;paint-order:normal;stroke-width:4;stroke:#ddc6b3"/>
   <g id="g1013" clip-path="url(#clipPath1015)">
    <rect id="rect13805-5" x="9.2651e-8" y="172" width="128" height="128" style="enable-background:accumulate;fill:#f6f5f4"/>
    <path id="rect913-3" transform="translate(0,172)" d="m48.002 4.0059v43.994h-44v32.012h44v43.994h31.998v-43.994h44.002v-32.012h-44.002v-43.994z" style="enable-background:new;fill:#e01b24;paint-order:normal"/>
    <path id="rect13805-5-6" d="m0 168v128h128v-128zm64 4a60 60 0 0 1 60 60 60 60 0 0 1-60 60 60 60 0 0 1-60-60 60 60 0 0 1 60-60zm0 26a34 34 0 0 0-34 34 34 34 0 0 0 34 34 34 34 0 0 0 34-34 34 34 0 0 0-34-34z" style="enable-background:accumulate;opacity:.15"/>
    <circle id="circle864" cx="64.42" cy="235.09" r="52" style="enable-background:new;fill:none;filter:url(#filter1047);paint-order:normal;stroke-width:4;stroke:url(#linearGradient884)"/>
    <circle id="path866" transform="rotate(180,0,1)" cx="-64.42" cy="-235.09" r="42" style="enable-background:new;fill:none;filter:url(#filter1031);paint-order:normal;stroke-width:4;stroke:url(#linearGradient892)"/>
   </g>
  </g>
 </g>
</svg>
