<?xml version="1.0" encoding="UTF-8"?>
<svg id="svg11300" width="128" height="128" style="enable-background:new" version="1.0" viewBox="0 0 128 128" xmlns="http://www.w3.org/2000/svg" xmlns:cc="http://creativecommons.org/ns#" xmlns:dc="http://purl.org/dc/elements/1.1/" xmlns:rdf="http://www.w3.org/1999/02/22-rdf-syntax-ns#" xmlns:xlink="http://www.w3.org/1999/xlink">
 <title id="title4162">Adwaita Icon Template</title>
 <defs id="defs3">
  <linearGradient id="linearGradient1037" x1="384" x2="416" y1="120" y2="120" gradientTransform="matrix(.25 0 0 .25 6.9489e-8 225)" gradientUnits="userSpaceOnUse">
   <stop id="stop1873" style="stop-color:#e8e7e4" offset="0"/>
   <stop id="stop1875" style="stop-color:#fff" offset=".5"/>
   <stop id="stop1877" style="stop-color:#c9c6c1" offset="1"/>
  </linearGradient>
 </defs>
 <metadata id="metadata4">
  <rdf:RDF>
   <cc:Work rdf:about="">
    <dc:format>image/svg+xml</dc:format>
    <dc:type rdf:resource="http://purl.org/dc/dcmitype/StillImage"/>
    <dc:creator>
     <cc:Agent>
      <dc:title>GNOME Design Team</dc:title>
     </cc:Agent>
    </dc:creator>
    <dc:source/>
    <cc:license rdf:resource="http://creativecommons.org/licenses/by-sa/4.0/"/>
    <dc:title>Adwaita Icon Template</dc:title>
    <dc:subject>
     <rdf:Bag/>
    </dc:subject>
    <dc:date/>
    <dc:rights>
     <cc:Agent>
      <dc:title/>
     </cc:Agent>
    </dc:rights>
    <dc:publisher>
     <cc:Agent>
      <dc:title/>
     </cc:Agent>
    </dc:publisher>
    <dc:identifier/>
    <dc:relation/>
    <dc:language/>
    <dc:coverage/>
    <dc:description/>
    <dc:contributor>
     <cc:Agent>
      <dc:title/>
     </cc:Agent>
    </dc:contributor>
   </cc:Work>
   <cc:License rdf:about="http://creativecommons.org/licenses/by-sa/4.0/">
    <cc:permits rdf:resource="http://creativecommons.org/ns#Reproduction"/>
    <cc:permits rdf:resource="http://creativecommons.org/ns#Distribution"/>
    <cc:requires rdf:resource="http://creativecommons.org/ns#Notice"/>
    <cc:requires rdf:resource="http://creativecommons.org/ns#Attribution"/>
    <cc:permits rdf:resource="http://creativecommons.org/ns#DerivativeWorks"/>
    <cc:requires rdf:resource="http://creativecommons.org/ns#ShareAlike"/>
   </cc:License>
  </rdf:RDF>
 </metadata>
 <g id="layer1" transform="translate(0,-172)">
  <g id="layer9">
   <path id="rect954-3-1" d="m24 200v92h72c4.432 0 8-3.568 8-8v-76c0-4.432-3.568-8-8-8z" style="enable-background:new;fill:#a51d2d;paint-order:normal"/>
   <rect id="rect968" x="24" y="274" width="8" height="18" style="enable-background:new;fill:#191622;paint-order:normal"/>
   <path id="rect954-3-6-2" d="m26 220v70h70c4.432 0 8-3.568 8-8v-54c0-4.432-3.568-8-8-8z" style="enable-background:new;fill:url(#linearGradient1037);paint-order:normal"/>
   <path id="rect954-3-2-7" d="m24 200v76h72c4.432 0 8-3.568 8-8v-60c0-4.432-3.568-8-8-8z" style="enable-background:new;fill:#ac1d2e;paint-order:normal"/>
   <path id="rect954-3-2-9-0-3-0" d="m24 180v94h72c4.432 0 8-3.568 8-8v-78c0-4.432-3.568-8-8-8z" style="enable-background:new;fill:#ed333b;paint-order:normal"/>
   <rect id="rect970" x="24" y="180" width="8" height="94" style="enable-background:new;fill:#424048;paint-order:normal"/>
   <path id="rect1366-2-9" d="m26 180h2v94h-2z" style="enable-background:new;fill:#fff;opacity:.223;paint-order:normal"/>
   <g id="g933">
    <path id="path977" d="m58 206.02v5.9795h-0.74854c-2.1886 0-3.2607 1.2059-3.2607 3.3052v6.6162c0 3.082-0.93803 4.3776-2.9927 5.0029 2.0546 0.62533 2.9927 1.9205 2.9927 5.0024v6.7681c0 2.0993 1.0721 3.3052 3.2607 3.3052h0.74854v5.8276h-1.5664c-5.5832 0-8.4419-2.8585-8.4419-7.9951v-7.7314c0-1.4293-0.75936-2.1041-1.9653-2.0996l-2.0264-0.00146v-5.9585l2.0264 2e-3c1.206 1e-3 1.9653-0.6703 1.9653-2.0996v-7.9283c0-5.1366 2.8586-7.9951 8.4419-7.9951z" style="fill:#fff;font-feature-settings:normal;font-variant-caps:normal;font-variant-ligatures:normal;font-variant-numeric:normal"/>
    <path id="path7718-7-0" d="m74 206.02v5.9795h0.74853c2.1886 0 3.2608 1.2059 3.2608 3.3052v6.6162c0 3.082 0.93803 4.3776 2.9927 5.0029-2.0546 0.62533-2.9927 1.9205-2.9927 5.0024v6.7681c0 2.0993-1.0721 3.3052-3.2608 3.3052h-0.74853v5.8276h1.5664c5.5833 0 8.4419-2.8585 8.4419-7.9951v-7.7314c0-1.4293 0.75936-2.1041 1.9653-2.0996l2.0264-0.00146v-5.9585l-2.0264 2e-3c-1.206 1e-3 -1.9653-0.6703-1.9653-2.0996v-7.9283c0-5.1366-2.8586-7.9951-8.4419-7.9951z" style="fill:#fff;font-feature-settings:normal;font-variant-caps:normal;font-variant-ligatures:normal;font-variant-numeric:normal"/>
   </g>
   <rect id="rect963" x="24" y="274" width="8" height="2" style="fill:#191622;paint-order:normal"/>
  </g>
 </g>
</svg>
