<?xml version="1.0" encoding="UTF-8"?>
<!-- Created with Inkscape (http://www.inkscape.org/) -->
<svg id="svg2995" width="48px" height="48px" version="1.1" xmlns="http://www.w3.org/2000/svg" xmlns:cc="http://creativecommons.org/ns#" xmlns:dc="http://purl.org/dc/elements/1.1/" xmlns:rdf="http://www.w3.org/1999/02/22-rdf-syntax-ns#">
 <title id="title3029">Rygel Icon</title>
 <metadata id="metadata3000">
  <rdf:RDF>
   <cc:Work rdf:about="">
    <dc:format>image/svg+xml</dc:format>
    <dc:type rdf:resource="http://purl.org/dc/dcmitype/StillImage"/>
    <dc:title>Rygel Icon</dc:title>
    <cc:license rdf:resource="http://creativecommons.org/licenses/by-sa/3.0/"/>
    <dc:creator>
     <cc:Agent>
      <dc:title>Chris Kühl</dc:title>
     </cc:Agent>
    </dc:creator>
   </cc:Work>
   <cc:License rdf:about="http://creativecommons.org/licenses/by-sa/3.0/">
    <cc:permits rdf:resource="http://creativecommons.org/ns#Reproduction"/>
    <cc:permits rdf:resource="http://creativecommons.org/ns#Distribution"/>
    <cc:requires rdf:resource="http://creativecommons.org/ns#Notice"/>
    <cc:requires rdf:resource="http://creativecommons.org/ns#Attribution"/>
    <cc:permits rdf:resource="http://creativecommons.org/ns#DerivativeWorks"/>
    <cc:requires rdf:resource="http://creativecommons.org/ns#ShareAlike"/>
   </cc:License>
  </rdf:RDF>
 </metadata>
 <g id="layer1">
  <path id="rect7378-3-7-9-2" d="m6.2807 1.8771v1.5299 21.414c0.07455-0.06621 0.14743-0.13538 0.21886-0.20427 0.16145-0.15575 0.31431-0.31462 0.45595-0.48514 0.14165-0.17053 0.27456-0.34959 0.39395-0.53255 0.11938-0.18298 0.22636-0.37601 0.32099-0.56903 0.094618-0.19302 0.17338-0.38661 0.24075-0.58726l0.010972 0.0292c0.065024-0.20839 0.14541-0.41362 0.23345-0.61281 0.087958-0.19924 0.18545-0.39208 0.29545-0.57998 0.10998-0.18789 0.23005-0.36906 0.36112-0.54348 0.13106-0.17446 0.27193-0.34093 0.42313-0.49974 0.15118-0.1588 0.31475-0.3113 0.48513-0.4523 0.17036-0.14101 0.34758-0.26925 0.53621-0.39029 0.1886-0.12111 0.38863-0.23299 0.59456-0.33194 0.20594-0.09896 0.41603-0.1843 0.63833-0.25899 0.18398-0.06176 0.3692-0.11487 0.55444-0.15684 0.18524-0.04194 0.37272-0.07575 0.55809-0.09848 0.37075-0.04548 0.7375-0.05344 1.1016-0.02554 0.36407 0.0279 0.72453 0.09322 1.0724 0.18968 0.34786 0.09648 0.68462 0.22636 1.0067 0.38665 0.32209 0.1603 0.62876 0.3497 0.91555 0.56903 0.28684 0.21934 0.55324 0.46685 0.7952 0.74046 0.24191 0.27366 0.45807 0.57419 0.64562 0.89732 0.09376 0.16154 0.18424 0.32668 0.26263 0.49972 0.07841 0.17304 0.14613 0.35226 0.20791 0.53621 0.06185 0.18394 0.1185 0.36907 0.16049 0.55444 0.04206 0.18529 0.07201 0.3726 0.09485 0.55808 0.0456 0.37096 0.0495 0.74087 0.02188 1.1052-0.02761 0.36433-0.0899 0.72055-0.18603 1.0688-0.09614 0.3482-0.22308 0.68796-0.383 1.0104-0.15995 0.32248-0.35 0.62846-0.56903 0.91556-0.21898 0.28712-0.4671 0.55665-0.74046 0.79884-0.27336 0.24213-0.57435 0.45794-0.89732 0.64562-0.16149 0.09384-0.32674 0.18057-0.49972 0.25899-0.17306 0.0784-0.35592 0.14977-0.53985 0.21155-0.22234 0.07471-0.44363 0.13323-0.66752 0.17874-0.22388 0.04554-0.44776 0.07735-0.67116 0.09484-0.2234 0.01752-0.44299 0.02029-0.66387 0.01097-0.22089-0.0093-0.44392-0.03427-0.66023-0.06932-0.2163-0.03504-0.42866-0.07904-0.63833-0.13861-0.20966-0.05956-0.41546-0.13226-0.61646-0.2152-0.20098-0.08297-0.39335-0.17568-0.58362-0.28087-0.19022-0.10515-0.38061-0.22028-0.55808-0.34652l0.01097 0.02188c-0.17468-0.11872-0.35916-0.2252-0.5508-0.32098-0.19164-0.09573-0.38934-0.17913-0.59457-0.25168-0.20522-0.072555-0.41928-0.13332-0.63468-0.18238-0.21542-0.049016-0.43439-0.084148-0.65657-0.10943-0.22225-0.02531-0.44554-0.03887-0.67117-0.04011-0.21106-0.0011-0.42349 0.0059-0.6347 0.02554v18.278h21.029c-0.10463-3.5277-1.087-6.449-1.087-6.449l-0.36112-1.0542 0.01097-0.0035c-0.05845-0.1633-0.12109-0.32426-0.19332-0.48149-0.09493-0.20659-0.20394-0.40734-0.321-0.60186-0.11706-0.19452-0.23887-0.3818-0.37571-0.56173-0.13682-0.17995-0.28715-0.3515-0.44135-0.51432-0.15422-0.16282-0.31593-0.31639-0.48514-0.45959-0.16923-0.14321-0.34704-0.2802-0.52891-0.40125-0.18187-0.12104-0.36958-0.22824-0.56173-0.32463-0.19215-0.09638-0.38723-0.17884-0.58727-0.24804l0.03285-0.0073c-0.20775-0.06696-0.41442-0.15091-0.61281-0.24074-0.19838-0.08979-0.38944-0.19103-0.57633-0.30276-0.18688-0.11171-0.36662-0.23211-0.53985-0.36476-0.17323-0.13265-0.34231-0.27413-0.49972-0.42677-0.15741-0.15264-0.30557-0.31712-0.44501-0.48879-0.13945-0.17164-0.26732-0.35014-0.38665-0.53985-0.11934-0.18973-0.22757-0.39139-0.32463-0.59821-0.09706-0.20683-0.1827-0.419-0.25534-0.64198-0.0601-0.1845-0.10928-0.37244-0.14954-0.55809-0.04024-0.1856-0.07381-0.36886-0.09484-0.55444-0.04206-0.37115-0.04584-0.74141-0.01457-1.1052 0.0312-0.36381 0.10098-0.72178 0.20062-1.0688 0.09966-0.34696 0.23072-0.68245 0.39394-1.0031 0.16324-0.32061 0.35803-0.62713 0.57998-0.91191 0.22195-0.28478 0.47194-0.54846 0.74776-0.78789 0.27583-0.23944 0.57615-0.45375 0.90097-0.63834 0.16242-0.09228 0.32962-0.17853 0.50337-0.25532 0.17375-0.07683 0.35535-0.14416 0.53985-0.20427 0.18454-0.06013 0.36873-0.11289 0.55444-0.15321 0.18571-0.04029 0.37241-0.07006 0.5581-0.09119 0.37136-0.04224 0.74113-0.04554 1.1052-0.01457 0.3641 0.03096 0.72145 0.09766 1.0688 0.19698 0.3473 0.09933 0.68579 0.23108 1.0067 0.39395 0.32097 0.16288 0.62317 0.35834 0.90826 0.57997 0.2851 0.22163 0.55186 0.46855 0.79153 0.74412 0.23967 0.27556 0.45362 0.57629 0.63834 0.90097 0.09236 0.16234 0.17851 0.33333 0.25534 0.50703 0.07685 0.17372 0.14415 0.35169 0.20427 0.5362 0.07264 0.22296 0.12798 0.44686 0.17143 0.67116 0.04346 0.22428 0.07574 0.4476 0.0912 0.67116 0.01549 0.22355 0.015 0.44674 0.0036 0.66751-0.01132 0.2208-0.03596 0.4406-0.07295 0.65657-0.03701 0.21598-0.08443 0.42922-0.1459 0.63834-0.06147 0.20911-0.13772 0.41259-0.22251 0.61281-0.08477 0.20021-0.17758 0.39436-0.28452 0.58362-0.1069 0.18928-0.22594 0.37814-0.35382 0.55444l0.02553-0.01098c-0.12033 0.17358-0.23075 0.35639-0.32829 0.54715-0.09752 0.19074-0.18091 0.38636-0.25533 0.59091-0.07442 0.20456-0.13864 0.41975-0.18968 0.6347-0.05101 0.21494-0.0894 0.4346-0.11672 0.65658-0.02733 0.22195-0.04409 0.44555-0.04743 0.67116-0.0033 0.22558 0.0046 0.45262 0.02554 0.67845 0.02095 0.22584 0.0566 0.44849 0.10214 0.67116 0.04554 0.22269 0.10102 0.44409 0.17144 0.66023l0.01824 0.05834-0.01098 0.0035 0.27722 0.81342c1.1e-5 1.1e-5 1.1061 3.2263 1.211 7.1676h12.158l0.01874-29.418c-1.1238 0-2.0542-0.0086-3.0755 0.20086l-0.0036-0.0073c-0.16166 0.05961-0.32235 0.12379-0.47785 0.19696-0.20572 0.09683-0.40476 0.20581-0.59821 0.32464-0.19345 0.11883-0.38307 0.24452-0.56174 0.383-0.17868 0.13845-0.34563 0.28932-0.50702 0.445-0.16143 0.15572-0.31432 0.31826-0.45596 0.48879-0.14164 0.17052-0.27456 0.34958-0.39394 0.53255-0.11937 0.183-0.23 0.37236-0.32464 0.56539-0.09461 0.19301-0.17339 0.3866-0.24073 0.58726l-0.01097-0.02919c-0.06507 0.20836-0.1418 0.41361-0.22981 0.61279-0.08796 0.19921-0.18909 0.39208-0.2991 0.57998-0.11 0.18789-0.22641 0.36907-0.35748 0.54349-0.13106 0.17445-0.27558 0.34457-0.42677 0.50338-0.15119 0.1588-0.3111 0.30765-0.48149 0.44865-0.17036 0.14102-0.35125 0.27288-0.53985 0.39395-0.18863 0.12107-0.38499 0.22934-0.59092 0.32829-0.20594 0.09896-0.41968 0.18794-0.64198 0.26262-0.18395 0.0618-0.36918 0.11488-0.55444 0.15686-0.18523 0.04194-0.36907 0.07574-0.55444 0.09848-0.37075 0.04549-0.74115 0.04979-1.1052 0.02188-0.3641-0.0279-0.72453-0.09322-1.0724-0.18968-0.34785-0.09647-0.68461-0.22273-1.0067-0.383-0.32207-0.16031-0.62875-0.35334-0.91555-0.57268-0.28679-0.21934-0.55324-0.46685-0.79518-0.74046-0.24195-0.27364-0.45808-0.57056-0.64563-0.89368-0.09378-0.16157-0.18426-0.33033-0.26263-0.50338-0.07843-0.17303-0.14613-0.35225-0.20792-0.53619-0.06181-0.18397-0.11484-0.36909-0.15684-0.55444-0.042-0.18531-0.07202-0.3726-0.09484-0.55808-0.0456-0.37096-0.05315-0.73722-0.02554-1.1016 0.02761-0.36436 0.0899-0.7242 0.18603-1.0724 0.09617-0.3482 0.22308-0.68796 0.383-1.0104 0.15995-0.32246 0.35367-0.62846 0.57269-0.91556 0.219-0.28712 0.46709-0.55665 0.74046-0.79884 0.27336-0.24216 0.57069-0.45794 0.89368-0.64562 0.16148-0.09383 0.33038-0.18056 0.50336-0.25899 0.17303-0.07843 0.35226-0.14977 0.53621-0.21155 0.22229-0.07469 0.44362-0.12958 0.66752-0.17508 0.22385-0.04554 0.44774-0.07734 0.67116-0.09485 0.2234-0.01752 0.44663-0.02389 0.66751-0.01457 0.22089 0.0093 0.44027 0.03427 0.65658 0.06931 0.2163 0.03504 0.42867 0.07905 0.63833 0.13861 0.20967 0.05956 0.41547 0.13226 0.61646 0.2152 0.20099 0.08296 0.39703 0.17568 0.58728 0.28088 0.19024 0.10515 0.37695 0.22392 0.55444 0.35017l-0.0074-0.02554c0.17469 0.11873 0.35552 0.22885 0.54716 0.32463 0.19161 0.09577 0.38933 0.17548 0.59456 0.24804 0.20522 0.07255 0.41928 0.13697 0.63469 0.18603 0.2154 0.04902 0.43437 0.08414 0.65657 0.10942 0.2222 0.02531 0.44554 0.03887 0.67116 0.04011 0.2256 0.0011 0.45283-0.0098 0.67846-0.0328 0.22564-0.02301 0.44891-0.05822 0.67116-0.10578 0.22226-0.0476 0.44473-0.10635 0.66023-0.17874l0.0547-0.01823 0.0036 0.01097c1.3491-0.25957 2.4814-0.25957 3.5802-0.25957l-0.0238-12.587h-25.296c0.20223 0.81993 0.3684 1.3168 0.3684 1.3168l0.35747 1.0505-0.01097 0.00354c0.05845 0.16346 0.121 0.32407 0.19332 0.48149 0.09494 0.20659 0.20393 0.40733 0.32099 0.60185 0.11706 0.19452 0.24252 0.38543 0.37935 0.56539 0.13682 0.17992 0.2835 0.34784 0.43772 0.51067 0.15422 0.16282 0.31591 0.32003 0.48513 0.46325 0.16926 0.1432 0.34705 0.27654 0.52891 0.3976 0.18188 0.12102 0.36959 0.2319 0.56174 0.32827 0.19214 0.096418 0.38723 0.1752 0.58726 0.2444l-0.0328 0.010968c0.20775 0.066941 0.41441 0.14726 0.61281 0.23709 0.19839 0.089793 0.38944 0.19103 0.57633 0.30276 0.18687 0.11168 0.37027 0.23209 0.5435 0.36476 0.17323 0.13263 0.33863 0.27779 0.49608 0.43041 0.1574 0.15266 0.30557 0.31347 0.445 0.48514 0.13947 0.17164 0.26732 0.35379 0.38666 0.5435 0.11933 0.1897 0.22757 0.38773 0.32463 0.59456 0.09706 0.20683 0.18269 0.419 0.25533 0.64198 0.06012 0.1845 0.11293 0.37244 0.1532 0.55809 0.04029 0.18558 0.07017 0.3725 0.09119 0.55808 0.04212 0.37116 0.04584 0.73777 0.01457 1.1016-0.0312 0.36381-0.10097 0.72544-0.20062 1.0724-0.09965 0.34697-0.23072 0.68247-0.39394 1.0031-0.16324 0.32057-0.35438 0.62347-0.57633 0.90825-0.22195 0.28478-0.47195 0.54846-0.74776 0.78789-0.27586 0.23944-0.57616 0.45375-0.90097 0.63834-0.16243 0.09226-0.32962 0.18217-0.50338 0.25897-0.17375 0.07683-0.35536 0.14051-0.53985 0.20062-0.18454 0.06015-0.37237 0.11289-0.55809 0.15321-0.18567 0.04029-0.3724 0.07007-0.55808 0.09119-0.37136 0.04223-0.73748 0.04554-1.1016 0.01457-0.3641-0.03097-0.72144-0.09766-1.0688-0.19698-0.34728-0.09933-0.68578-0.23108-1.0067-0.39395-0.32097-0.16289-0.62684-0.3547-0.9119-0.57632-0.28514-0.22164-0.55187-0.4722-0.79154-0.74776-0.23967-0.27558-0.45364-0.57629-0.63833-0.90097-0.09238-0.16234-0.17486-0.32968-0.25169-0.50337-0.07685-0.17373-0.14781-0.35534-0.20792-0.53986-0.07262-0.22296-0.12798-0.44322-0.17144-0.66751-0.04347-0.22431-0.07209-0.45126-0.08754-0.67482-0.01551-0.22355-0.01864-0.44308-0.0073-0.66387 0.01132-0.2208 0.03592-0.44424 0.07295-0.66022 0.03699-0.216 0.08443-0.42922 0.1459-0.63834 0.06148-0.20911 0.13773-0.41259 0.2225-0.6128 0.0848-0.20022 0.17759-0.39436 0.28453-0.58363 0.10689-0.18928 0.22595-0.37448 0.35382-0.5508l-0.02554 0.0074c0.12034-0.1736 0.2344-0.35275 0.33194-0.5435 0.09752-0.19075 0.18091-0.39002 0.25533-0.59456 0.07443-0.20458 0.13502-0.41975 0.18603-0.6347 0.05103-0.21491 0.08941-0.43096 0.11672-0.65292 0.02737-0.22196 0.04407-0.44556 0.04742-0.67117 0.0035-0.22558-0.0047-0.45263-0.02554-0.67846-0.02092-0.22578-0.05655-0.45207-0.1021-0.67475-0.0456-0.22271-0.10102-0.44409-0.17144-0.66023l-0.01823-0.054682 0.01097-0.00354-0.27722-0.81707s-0.26728-0.77756-0.55079-2.0317h-6.4123-1.4156z" style="fill:#820404"/>
 </g>
</svg>
