<?xml version="1.0" encoding="UTF-8"?>
<svg id="svg7384" width="16" height="16" style="enable-background:new" version="1.1" xmlns="http://www.w3.org/2000/svg" xmlns:cc="http://creativecommons.org/ns#" xmlns:dc="http://purl.org/dc/elements/1.1/" xmlns:rdf="http://www.w3.org/1999/02/22-rdf-syntax-ns#">
 <metadata id="metadata90">
  <rdf:RDF>
   <cc:Work rdf:about="">
    <dc:format>image/svg+xml</dc:format>
    <dc:type rdf:resource="http://purl.org/dc/dcmitype/StillImage"/>
    <dc:title>Gnome Symbolic Icons</dc:title>
    <cc:license rdf:resource="http://creativecommons.org/licenses/by-sa/4.0/"/>
   </cc:Work>
   <cc:License rdf:about="http://creativecommons.org/licenses/by-sa/4.0/">
    <cc:permits rdf:resource="http://creativecommons.org/ns#Reproduction"/>
    <cc:permits rdf:resource="http://creativecommons.org/ns#Distribution"/>
    <cc:requires rdf:resource="http://creativecommons.org/ns#Notice"/>
    <cc:requires rdf:resource="http://creativecommons.org/ns#Attribution"/>
    <cc:permits rdf:resource="http://creativecommons.org/ns#DerivativeWorks"/>
    <cc:requires rdf:resource="http://creativecommons.org/ns#ShareAlike"/>
   </cc:License>
  </rdf:RDF>
 </metadata>
 <title id="title8473">Gnome Symbolic Icons</title>
 <g id="layer2" transform="translate(-72 -28)">
  <path id="path3875" class="success" d="m77 34v7h3v-2l3-3v-2z" style="fill:#33d17a"/>
  <path id="path3879" d="m77.469 28.012c-0.49033 0-0.79607 0.21478-1.0312 0.45508s-0.4375 0.55655-0.4375 1.0293v0.50391h-2v14h8v-2h-6v-10h2v-1.9883h4v1.9883h2v3h2v-5h-2v-0.39453l-2e-3 -0.02734c-0.023883-0.43061-0.17995-0.73471-0.41597-1.0137-0.23602-0.27896-0.6205-0.5849-1.1992-0.55273z" style="color-rendering:auto;color:#bebebe;dominant-baseline:auto;enable-background:accumulate;fill:#2e3436;font-feature-settings:normal;font-variant-alternates:normal;font-variant-caps:normal;font-variant-ligatures:normal;font-variant-numeric:normal;font-variant-position:normal;image-rendering:auto;isolation:auto;mix-blend-mode:normal;shape-padding:0;shape-rendering:auto;solid-color:#000000;text-decoration-color:#000000;text-decoration-line:none;text-decoration-style:solid;text-indent:0;text-orientation:mixed;text-transform:none;white-space:normal"/>
  <path id="path3883" d="m84.957 36.002a1.0001 1.0001 0 0 0-0.66406 0.29102l-3 3a1.0001 1.0001 0 0 0 0.70703 1.707h1 1.1035l-0.95898 1.4043a1.0001 1.0001 0 0 0 1.5234 1.2793l3.0312-2.9688a1.0001 1.0001 0 0 0-0.69922-1.7148h-1-1.1309l0.96289-1.4453a1.0001 1.0001 0 0 0-0.875-1.5527z" style="color-rendering:auto;color:#bebebe;dominant-baseline:auto;enable-background:accumulate;fill:#2e3436;font-feature-settings:normal;font-variant-alternates:normal;font-variant-caps:normal;font-variant-ligatures:normal;font-variant-numeric:normal;font-variant-position:normal;image-rendering:auto;isolation:auto;mix-blend-mode:normal;shape-padding:0;shape-rendering:auto;solid-color:#000000;text-decoration-color:#000000;text-decoration-line:none;text-decoration-style:solid;text-indent:0;text-orientation:mixed;text-transform:none;white-space:normal"/>
  <path id="rect3885" d="m87 39h1v1h-1z" style="color:#bebebe;fill:#2e3436"/>
  <path id="rect3887" d="m81 40h1v1h-1z" style="color:#bebebe;fill:#2e3436"/>
  <path id="rect3889" d="m85 36h1v1h-1z" style="color:#bebebe;fill:#2e3436"/>
  <path id="rect3891" d="m82.969 42.968h1v1h-1z" style="color:#bebebe;fill:#2e3436"/>
 </g>
</svg>
