<?xml version="1.0" encoding="UTF-8"?>
<svg width="16" height="16" xmlns="http://www.w3.org/2000/svg">
 <g fill="#2e3436">
  <path d="M6.984 0A1 1 0 006 1v3.586L4.707 3.293a1 1 0 10-1.414 1.414L6 7.414v1.172l-2.707 2.707a1 1 0 101.414 1.414L6 11.414V15a1 1 0 001.707.707l4-4a1 1 0 000-1.414L9.414 8l2.293-2.293a1 1 0 000-1.414l-4-4A1 1 0 006.984 0zM8 3.414L9.586 5 8 6.586zm0 6L9.586 11 8 12.586z" font-family="sans-serif" font-weight="400" overflow="visible" style="font-feature-settings:normal;font-variant-alternates:normal;font-variant-caps:normal;font-variant-ligatures:normal;font-variant-numeric:normal;font-variant-position:normal;isolation:auto;mix-blend-mode:normal;shape-padding:0;text-decoration-color:#000;text-decoration-line:none;text-decoration-style:solid;text-indent:0;text-orientation:mixed;text-transform:none"/>
  <path d="M3 3h1v1H3zm0 9h1v1H3zm3 3h1v1H6zM6 0h1v1H6z"/>
 </g>
</svg>
