<?xml version="1.0" encoding="UTF-8"?>
<svg width="16" height="16" xmlns="http://www.w3.org/2000/svg">
 <g fill="#2e3436" font-family="sans-serif" font-weight="400">
  <path d="M5.006 2c.554 0 1 .446 1 1v3c0 .554-.446 1-1 1h-.711a6.972 6.972 0 004.71 4.71V11c0-.554.447-1 1-1h3c.555 0 1 .446 1 1v1.5a2.5 2.5 0 01-2.5 2.5h-.5c-5.504 0-10-4.495-10-10v-.5a2.5 2.5 0 012.5-2.5z" overflow="visible" style="font-feature-settings:normal;font-variant-alternates:normal;font-variant-caps:normal;font-variant-ligatures:normal;font-variant-numeric:normal;font-variant-position:normal;isolation:auto;mix-blend-mode:normal;shape-padding:0;text-decoration-color:#000;text-decoration-line:none;text-decoration-style:solid;text-indent:0;text-orientation:mixed;text-transform:none"/>
  <path d="M11 0h-1v.832A1 1 0 0011 2h1.586L8.293 6.293c-.982.942.472 2.396 1.414 1.414L14 3.414V5a1 1 0 001.158 1H16V0z" overflow="visible" style="font-feature-settings:normal;font-variant-alternates:normal;font-variant-caps:normal;font-variant-ligatures:normal;font-variant-numeric:normal;font-variant-position:normal;isolation:auto;mix-blend-mode:normal;shape-padding:0;text-decoration-color:#000;text-decoration-line:none;text-decoration-style:solid;text-indent:0;text-orientation:mixed;text-transform:none"/>
 </g>
</svg>
