<?xml version="1.0" encoding="UTF-8"?>
<svg width="16.006" height="16.013" xmlns="http://www.w3.org/2000/svg">
 <path d="M12.98 0a1 1 0 00-.11.01H8v.832A1 1 0 009 2.01h1.586L8 4.596 5.707 2.303a1 1 0 10-1.414 1.414l3 3a1 1 0 001.414 0L12 3.424V5.01a1 1 0 001.158 1H14V1.137a1 1 0 000-.275V.01h-.854A1 1 0 0012.98 0z" fill="#2e3436" font-family="sans-serif" font-weight="400" overflow="visible" style="font-feature-settings:normal;font-variant-alternates:normal;font-variant-caps:normal;font-variant-ligatures:normal;font-variant-numeric:normal;font-variant-position:normal;isolation:auto;mix-blend-mode:normal;shape-padding:0;text-decoration-color:#000;text-decoration-line:none;text-decoration-style:solid;text-indent:0;text-orientation:mixed;text-transform:none"/>
 <path class="error" d="M14.242 15.725a.979.979 0 01-1.387 0l-1.04-1.04-1.041-1.04a.979.979 0 010-1.387l.493-.493a6.838 6.838 0 00-6.534 0l.493.493a.979.979 0 010 1.387l-1.04 1.04-1.04 1.04a.979.979 0 01-1.388 0l-1.04-1.04a2.452 2.452 0 010-3.468l.347-.346c3.818-3.818 10.052-3.818 13.87 0l.347.346a2.452 2.452 0 010 3.468z" fill="#e01b24" font-family="sans-serif" font-weight="400" overflow="visible" style="font-feature-settings:normal;font-variant-alternates:normal;font-variant-caps:normal;font-variant-ligatures:normal;font-variant-numeric:normal;font-variant-position:normal;isolation:auto;mix-blend-mode:normal;shape-padding:0;text-decoration-color:#000;text-decoration-line:none;text-decoration-style:solid;text-indent:0;text-orientation:mixed;text-transform:none"/>
</svg>
