<?xml version="1.0" encoding="UTF-8"?>
<svg width="16" height="16" xmlns="http://www.w3.org/2000/svg">
 <g fill="#2e3436">
  <path transform="translate(-232 -248)" d="m238 250c-0.54996 0-1 0.45004-1 1v1h-3c-0.55201 0-1 0.45004-1 1v2h3.5547c0.6929-1.1906 1.9685-2 3.4453-2s2.7524 0.8094 3.4453 2h3.5547v-2c0-0.54996-0.44799-1-1-1h-3v-1c0-0.54996-0.45004-1-1-1zm-5 10v1c0 0.54996 0.44799 1 1 1h12c0.55201 0 1-0.45004 1-1v-1h-4.3809c-0.70322 0.61442-1.612 1-2.6191 1s-1.9159-0.38558-2.6191-1z" color="#bebebe" fill-opacity=".349" overflow="visible"/>
  <path transform="translate(-232 -248)" d="m232 256h16v3h-16z"/>
 </g>
</svg>
