<?xml version="1.0" encoding="UTF-8"?>
<svg width="16" height="16" xmlns="http://www.w3.org/2000/svg">
 <g fill="#474747" font-weight="400">
  <path d="M8 5H7c-.265 0-.53.093-.719.281l-3 3L3 8.562v.875l.281.282 3 3c.188.188.454.281.72.281h1v-1c0-.265-.094-.53-.282-.719L5.438 9l2.28-2.281c.189-.188.282-.454.282-.72V5z" font-family="Bitstream Vera Sans" overflow="visible" style="text-decoration-line:none;text-indent:0;text-transform:none"/>
  <path d="M12 4v2.5c0 .84-.66 1.5-1.5 1.5H5v2h5.5c1.921 0 3.5-1.579 3.5-3.5V4z" font-family="sans-serif" overflow="visible" style="font-feature-settings:normal;font-variant-alternates:normal;font-variant-caps:normal;font-variant-ligatures:normal;font-variant-numeric:normal;font-variant-position:normal;isolation:auto;mix-blend-mode:normal;shape-padding:0;text-decoration-color:#000;text-decoration-line:none;text-decoration-style:solid;text-indent:0;text-orientation:mixed;text-transform:none"/>
 </g>
</svg>
