<?xml version="1.0" encoding="UTF-8"?>
<svg width="16" height="16" xmlns="http://www.w3.org/2000/svg">
 <g fill="#2e3436">
  <path d="m8 4.006c-2.195 0-4 1.805-4 4s1.805 4 4 4 4-1.805 4-4-1.805-4-4-4z" color="#bebebe" font-family="Sans" font-weight="400" overflow="visible" style="font-feature-settings:normal;font-variant-alternates:normal;font-variant-caps:normal;font-variant-ligatures:normal;font-variant-numeric:normal;font-variant-position:normal;isolation:auto;mix-blend-mode:normal;shape-padding:0;text-decoration-color:#000;text-decoration-line:none;text-decoration-style:solid;text-indent:0;text-orientation:mixed;text-transform:none"/>
  <path d="M7.5 0h1c.277 0 .5.223.5.5v2c0 .277-.223.5-.5.5h-1a.499.499 0 01-.5-.5v-2c0-.277.223-.5.5-.5zm0 13h1c.277 0 .5.223.5.5v2c0 .277-.223.5-.5.5h-1a.499.499 0 01-.5-.5v-2c0-.277.223-.5.5-.5zM1.99 2.697l.707-.707a.499.499 0 01.707 0l1.414 1.414a.499.499 0 010 .707l-.707.707a.499.499 0 01-.707 0L1.99 3.404a.499.499 0 010-.707zm9.192 9.193l.707-.708a.499.499 0 01.707 0l1.415 1.414a.499.499 0 010 .707l-.708.707a.499.499 0 01-.707 0l-1.414-1.414a.499.499 0 010-.707zm-8.485 2.12l-.707-.707a.499.499 0 010-.707l1.414-1.414a.499.499 0 01.707 0l.707.707a.499.499 0 010 .707L3.404 14.01a.499.499 0 01-.707 0zm9.193-9.192l-.708-.707a.499.499 0 010-.707l1.414-1.414a.499.499 0 01.708 0l.707.707a.499.499 0 010 .707l-1.415 1.414a.499.499 0 01-.707 0zM16 7.5v1c0 .277-.223.5-.5.5h-2a.499.499 0 01-.5-.5v-1c0-.277.223-.5.5-.5h2c.277 0 .5.223.5.5zm-13 0v1c0 .277-.223.5-.5.5h-2a.499.499 0 01-.5-.5v-1c0-.277.223-.5.5-.5h2c.277 0 .5.223.5.5z"/>
 </g>
</svg>
