<?xml version="1.0" encoding="UTF-8"?>
<svg width="16" height="16" xmlns="http://www.w3.org/2000/svg">
 <g color="#bebebe" fill="#474747" font-family="Andale Mono" font-weight="400">
  <path d="M8 5a3.001 3.001 0 000 6 3.001 3.001 0 000-6z" overflow="visible" style="text-decoration-line:none;text-indent:0;text-transform:none"/>
  <path d="M8.004 1C4.144 1 1 4.144 1 8.004c0 3.86 3.144 7.006 7.004 7.006 3.86 0 7.006-3.146 7.006-7.006C15.01 4.144 11.864 1 8.004 1zm0 1a6.002 6.002 0 016.006 6.004 6.004 6.004 0 01-6.006 6.006A6.002 6.002 0 012 8.004 6 6 0 018.004 2z" overflow="visible" style="font-feature-settings:normal;font-variant-alternates:normal;font-variant-caps:normal;font-variant-ligatures:normal;font-variant-numeric:normal;font-variant-position:normal;isolation:auto;mix-blend-mode:normal;shape-padding:0;text-decoration-color:#000;text-decoration-line:none;text-decoration-style:solid;text-indent:0;text-orientation:mixed;text-transform:none"/>
 </g>
</svg>
