<?xml version="1.0" encoding="UTF-8"?>
<svg width="16" height="16" xmlns="http://www.w3.org/2000/svg">
 <g fill="#474747">
  <path d="M2 2c-.524 0-1 .476-1 1v10c0 .524.476 1 1 1h3v-2s-1.993-.021-2 0V4h11v8h-1v2h2c.52 0 1-.435 1-1V3c0-.467-.437-1-1-1z" font-family="Sans" font-weight="400" overflow="visible" style="text-decoration-line:none;text-indent:0;text-transform:none"/>
  <path d="M12 8.063a3 3 0 01-6 0 3 3 0 116 0z"/>
  <path d="m8 9-2 7h1l2-2 2 2h1l-2-7" fill-rule="evenodd"/>
 </g>
</svg>
