<?xml version="1.0" encoding="UTF-8"?>
<svg width="16" height="16" xmlns="http://www.w3.org/2000/svg">
 <g fill="#474747">
  <path d="M3 8h10v7.059c0 .492-.472.937-.996.937H4c-.539 0-1-.43-1-1z" color="#bebebe" overflow="visible"/>
  <path d="M6.794 2.97a1 1 0 00-.754.378L3.225 6.805a1 1 0 00-.224.633v1a1 1 0 102 0v-.645l2.592-3.181a1 1 0 00-.8-1.643zm2.213 3.003a1 1 0 00-.145 1.988l2.17.38v.16a1 1 0 102 0v-1a1 1 0 00-.828-.987l-2.998-.523a1 1 0 00-.2-.018z" font-family="sans-serif" font-weight="400" overflow="visible" style="font-feature-settings:normal;font-variant-alternates:normal;font-variant-caps:normal;font-variant-ligatures:normal;font-variant-numeric:normal;font-variant-position:normal;isolation:auto;mix-blend-mode:normal;shape-padding:0;text-decoration-color:#000;text-decoration-line:none;text-decoration-style:solid;text-indent:0;text-orientation:mixed;text-transform:none"/>
 </g>
</svg>
