<?xml version="1.0" encoding="UTF-8"?>
<svg width="16" height="16" xmlns="http://www.w3.org/2000/svg">
 <g fill="#474747">
  <path d="M3 1a1 1 0 00-1 1v13a1 1 0 001 1h10a1 1 0 001-1V5.5a1 1 0 00-.293-.707l-3.5-3.5A1 1 0 009.5 1zm1 2h5.086L12 5.914V14H4z" fill-rule="evenodd" font-family="sans-serif" font-weight="400" overflow="visible" style="font-feature-settings:normal;font-variant-alternates:normal;font-variant-caps:normal;font-variant-ligatures:normal;font-variant-numeric:normal;font-variant-position:normal;isolation:auto;mix-blend-mode:normal;shape-padding:0;text-decoration-color:#000;text-decoration-line:none;text-decoration-style:solid;text-indent:0;text-orientation:mixed;text-transform:none"/>
  <path d="m9 2v4h4z" fill-rule="evenodd"/>
  <path d="M4.986 3.986h1v1h-1zm2 0h1v1h-1zm-2 2h1v1h-1zm2 0h1v1h-1zm-2 6h1v1h-1zm2 0h1v1h-1zm2 0h1v1h-1zm-4-.989h6V9.986L9.517 7.434 7.986 9.481 6.517 8.42 4.986 9.986z" overflow="visible"/>
 </g>
</svg>
