<?xml version="1.0" encoding="UTF-8"?>
<svg width="16" height="16" xmlns="http://www.w3.org/2000/svg">
 <g fill="#474747">
  <path d="M2.969 1.01c-1.053 0-2 .846-2 1.938v10.115c0 1.092.947 1.937 2 1.937H13c1.052 0 2-.845 2-1.937V2.948c0-1.092-.948-1.937-2-1.937zm0 3.99H5v2H2.969zM6 5h3v2H6zm4 0h3v2h-3zM2.969 8H5v2H2.969zM6 8h3v2H6zm4 0h3v2h-3zm-7.031 3H5v2H2.969zM6 11h3v2H6zm4 0h3v2h-3z" font-family="Sans" font-weight="400" overflow="visible" style="text-decoration-line:none;text-indent:0;text-transform:none"/>
  <path d="m10 8h3v2h-3z" opacity=".35" overflow="visible"/>
 </g>
</svg>
