<?xml version="1.0" encoding="UTF-8"?>
<svg width="16" height="16" xmlns="http://www.w3.org/2000/svg">
 <g fill="#474747">
  <path d="M3 1a1 1 0 00-1 1v13a1 1 0 001 1h10a1 1 0 001-1V5.5a1 1 0 00-.293-.707l-3.5-3.5A1 1 0 009.5 1zm1 2h5.086L12 5.914V14H4z" fill-rule="evenodd" font-family="sans-serif" font-weight="400" overflow="visible" style="font-feature-settings:normal;font-variant-alternates:normal;font-variant-caps:normal;font-variant-ligatures:normal;font-variant-numeric:normal;font-variant-position:normal;isolation:auto;mix-blend-mode:normal;shape-padding:0;text-decoration-color:#000;text-decoration-line:none;text-decoration-style:solid;text-indent:0;text-orientation:mixed;text-transform:none"/>
  <path d="m9 2v4h4z" fill-rule="evenodd"/>
  <path d="M6.418 4.986c-.86 0-1.568.708-1.568 1.569 0 .86.708 1.568 1.568 1.568.86 0 1.569-.708 1.569-1.568 0-.86-.709-1.569-1.569-1.569zm0 1c.32 0 .569.249.569.569 0 .32-.25.568-.569.568a.561.561 0 01-.568-.568c0-.32.248-.569.568-.569z" font-family="sans-serif" font-weight="400" overflow="visible" style="font-feature-settings:normal;font-variant-alternates:normal;font-variant-caps:normal;font-variant-ligatures:normal;font-variant-numeric:normal;font-variant-position:normal;isolation:auto;mix-blend-mode:normal;shape-padding:0;text-decoration-color:#000;text-decoration-line:none;text-decoration-style:solid;text-indent:0;text-orientation:mixed;text-transform:none"/>
  <path d="m8.986 7.986h2v1h-2zm-4 2h6v1h-6zm0 2h6v1h-6z" overflow="visible"/>
 </g>
</svg>
