<?xml version="1.0" encoding="UTF-8"?>
<svg width="16" height="16" xmlns="http://www.w3.org/2000/svg">
 <g color="#bebebe" fill="#2e3436" font-weight="400">
  <path d="M8.78 5.008a1.023 1.023 0 00-.47.281l-3.03 3c-.236.23-.345.583-.282.906v.813h2.47L6.282 11.28c-.214.22-.321.54-.281.844a1.464 1.464 0 000 .094V13h1a1.03 1.03 0 00.719-.281l3-2.993c.183-.19.287-.454.281-.718a.87.87 0 000-.125v-.875H8.436l1.312-1.282a1.03 1.03 0 00.281-.843 1.464 1.464 0 000-.094v-.781h-1a1.015 1.015 0 00-.25 0z" font-family="Bitstream Vera Sans" font-size="xx-small" overflow="visible" style="text-decoration-line:none;text-indent:0;text-transform:none"/>
  <path d="M5.469.04c-.489 0-.794.213-1.03.452C4.204.732 4 1.046 4 1.52v.501H2v13.916l12.003.002V2.021H12v-.416a1.616 1.616 0 00-.418-1.012c-.236-.278-.621-.583-1.197-.55l.054-.003zm.529 1.995l4.006.002v1.98h2v9.924H3.996V4.018h2.002z" font-family="sans-serif" opacity=".5" overflow="visible" style="font-feature-settings:normal;font-variant-alternates:normal;font-variant-caps:normal;font-variant-ligatures:normal;font-variant-numeric:normal;font-variant-position:normal;isolation:auto;mix-blend-mode:normal;shape-padding:0;text-decoration-color:#000;text-decoration-line:none;text-decoration-style:solid;text-indent:0;text-orientation:mixed;text-transform:none;white-space:normal"/>
 </g>
</svg>
