<?xml version="1.0" encoding="UTF-8"?>
<svg width="16" height="16" xmlns="http://www.w3.org/2000/svg">
 <path transform="translate(-32 -328)" d="m40 328c-1.662 0-3 1.338-3 3v5c0 1.662 1.338 3 3 3s3-1.338 3-3v-5c0-1.662-1.338-3-3-3zm-6 6v2.0098c0 2.9657 2.1654 5.4238 5 5.9004v2.0898h2v-2.0898c2.8346-0.47659 5-2.9346 5-5.9004v-2.0098h-1.5v2.0098c0 2.5001-1.9933 4.4902-4.5 4.4902s-4.5-1.9901-4.5-4.4902v-2.0098z" fill="#2e3436" font-family="sans-serif" font-weight="400" overflow="visible" style="font-feature-settings:normal;font-variant-alternates:normal;font-variant-caps:normal;font-variant-ligatures:normal;font-variant-numeric:normal;font-variant-position:normal;isolation:auto;mix-blend-mode:normal;shape-padding:0;text-decoration-color:#000;text-decoration-line:none;text-decoration-style:solid;text-indent:0;text-orientation:mixed;text-transform:none;white-space:normal"/>
</svg>
