<?xml version="1.0" encoding="UTF-8"?>
<svg width="16" height="16" xmlns="http://www.w3.org/2000/svg">
 <g fill="#2e3436" font-family="sans-serif" font-weight="400">
  <path d="M12.403 4.15L7.45 9.102 7 11l1.87-.39 5-5c.549-.593.63-1.11.13-1.61s-1.17-.278-1.597.15z" clip-rule="evenodd" fill-rule="evenodd" image-rendering="optimizeQuality" overflow="visible" shape-rendering="geometricPrecision" text-rendering="geometricPrecision" style="isolation:auto;mix-blend-mode:normal;text-decoration-color:#000;text-decoration-line:none;text-decoration-style:solid;text-indent:0;text-transform:none"/>
  <path d="M2.191 6L.263 15h15.473L14 6.897 12.316 8.58l.946 4.42H2.738l1.07-5h3.33l1.999-2zm9.776 0l-2 2h.1l2-2z" fill-rule="evenodd" overflow="visible" style="font-feature-settings:normal;font-variant-alternates:normal;font-variant-caps:normal;font-variant-ligatures:normal;font-variant-numeric:normal;font-variant-position:normal;isolation:auto;mix-blend-mode:normal;shape-padding:0;text-decoration-color:#000;text-decoration-line:none;text-decoration-style:solid;text-indent:0;text-orientation:mixed;text-transform:none"/>
  <path d="M8 0v1.5a.506.506 0 01-.147.356.484.484 0 01-.345.144H4.496a1.498 1.498 0 00-1.297 2.248c.266.463.761.752 1.295.752h3.01c.18 0 .34.092.43.248A.506.506 0 018 5.5V6h1v-.5A1.498 1.498 0 007.504 4h-3.01a.491.491 0 01-.428-.248.507.507 0 010-.504.488.488 0 01.43-.248h3.012A1.501 1.501 0 009 1.5V0z" overflow="visible" style="font-feature-settings:normal;font-variant-alternates:normal;font-variant-caps:normal;font-variant-ligatures:normal;font-variant-numeric:normal;font-variant-position:normal;isolation:auto;mix-blend-mode:normal;shape-padding:0;text-decoration-color:#000;text-decoration-line:none;text-decoration-style:solid;text-indent:0;text-orientation:mixed;text-transform:none"/>
 </g>
</svg>
