<?xml version="1.0" encoding="UTF-8"?>
<svg width="16" height="16" xmlns="http://www.w3.org/2000/svg">
 <g fill="#2e3436">
  <path d="M5.525 0C4.433 0 3.61.68 3.295 1.295c-.314.615-.3 1.205-.3 1.205v13.117l5-2.5 5 2.5V11h-2v1.383l-3-1.5-3 1.5V2.5s.013-.16.081-.295c.069-.134.01-.205.45-.205h4.968c.417 0 .35.06.418.197s.082.303.082.303V3h2v-.5s.014-.584-.293-1.197C12.394.689 11.577 0 10.494 0z" fill-rule="evenodd" font-family="sans-serif" font-weight="400" overflow="visible" style="font-feature-settings:normal;font-variant-alternates:normal;font-variant-caps:normal;font-variant-ligatures:normal;font-variant-numeric:normal;font-variant-position:normal;isolation:auto;mix-blend-mode:normal;shape-padding:0;text-decoration-color:#000;text-decoration-line:none;text-decoration-style:solid;text-indent:0;text-orientation:mixed;text-transform:none"/>
  <path d="M11 4v2H9v2h2v2h2V8h2V6h-2V4z"/>
 </g>
</svg>
