<?xml version="1.0" encoding="UTF-8"?>
<svg width="16.006" height="16" xmlns="http://www.w3.org/2000/svg">
 <path d="M14.242 11.715a.979.979 0 01-1.387 0l-1.04-1.04-1.041-1.04a.979.979 0 010-1.388l.493-.493a6.838 6.838 0 00-6.534 0l.493.493a.979.979 0 010 1.387l-1.04 1.04-1.04 1.04a.979.979 0 01-1.388 0l-1.04-1.04a2.452 2.452 0 010-3.467l.347-.347c3.818-3.818 10.052-3.818 13.87 0l.347.347c.957.958.957 2.51 0 3.468z" fill="#2e3436" font-family="sans-serif" font-weight="400" overflow="visible" style="font-feature-settings:normal;font-variant-alternates:normal;font-variant-caps:normal;font-variant-ligatures:normal;font-variant-numeric:normal;font-variant-position:normal;isolation:auto;mix-blend-mode:normal;shape-padding:0;text-decoration-color:#000;text-decoration-line:none;text-decoration-style:solid;text-indent:0;text-orientation:mixed;text-transform:none"/>
</svg>
