<?xml version="1.0" encoding="UTF-8"?>
<svg width="16.006" height="16" xmlns="http://www.w3.org/2000/svg">
 <path d="M12.96.98a2 2 0 00-1.374.606L10 3.172 8.914 2.086a.5.5 0 00-.707 0L6.086 4.207a.5.5 0 000 .707l.646.647-5.586 5.585A.5.5 0 001 11.5v1.793l-.854.853a.5.5 0 000 .708l1 1a.5.5 0 00.707 0L2.707 15H4.5a.5.5 0 00.353-.146l5.586-5.586.647.646a.5.5 0 00.707 0l2.121-2.121a.5.5 0 000-.707L12.828 6l1.586-1.586c1.308-1.272.37-3.487-1.453-3.434zM7.94 6.768L9.231 8.06 6.292 11H3.708z" fill="#2e3436" fill-rule="evenodd" font-family="sans-serif" font-weight="400" overflow="visible" style="font-feature-settings:normal;font-variant-alternates:normal;font-variant-caps:normal;font-variant-ligatures:normal;font-variant-numeric:normal;font-variant-position:normal;isolation:auto;mix-blend-mode:normal;shape-padding:0;text-decoration-color:#000;text-decoration-line:none;text-decoration-style:solid;text-indent:0;text-orientation:mixed;text-transform:none"/>
</svg>
