<?xml version="1.0" encoding="UTF-8"?>
<svg width="16" height="16" xmlns="http://www.w3.org/2000/svg">
 <g fill="#2e3436">
  <path d="M3 1a1 1 0 00-1 1v13a1 1 0 001 1h8v-2H4V3h5.586L12 5.414V7h2V5a1 1 0 00-.293-.707l-3-3A1 1 0 0010 1zm5 7v2h3c.667 0 .725.186.855.447.131.262.145.553.145.553v5h2v-5s.014-.709-.355-1.447C13.275 8.814 12.333 8 11 8z" fill-rule="evenodd" font-family="sans-serif" font-weight="400" overflow="visible" style="font-feature-settings:normal;font-variant-alternates:normal;font-variant-caps:normal;font-variant-ligatures:normal;font-variant-numeric:normal;font-variant-position:normal;isolation:auto;mix-blend-mode:normal;shape-padding:0;text-decoration-color:#000;text-decoration-line:none;text-decoration-style:solid;text-indent:0;text-orientation:mixed;text-transform:none;white-space:normal"/>
  <path d="M8.293 6.293L5.586 9l2.707 2.707 1.414-1.414L8.414 9l1.293-1.293z" font-family="sans-serif" font-weight="400" overflow="visible" style="font-feature-settings:normal;font-variant-alternates:normal;font-variant-caps:normal;font-variant-ligatures:normal;font-variant-numeric:normal;font-variant-position:normal;isolation:auto;mix-blend-mode:normal;shape-padding:0;text-decoration-color:#000;text-decoration-line:none;text-decoration-style:solid;text-indent:0;text-orientation:mixed;text-transform:none;white-space:normal"/>
  <path d="M9 11h1v1H9zm0-5h1v1H9z" overflow="visible"/>
  <path d="M9 6c.554 0 1 .446 1 1s-.446 1-1 1-1-.446-1-1 .446-1 1-1zm0 4c.554 0 1 .446 1 1s-.446 1-1 1-1-.446-1-1 .446-1 1-1z" overflow="visible"/>
 </g>
</svg>
