<?xml version="1.0" encoding="UTF-8"?>
<svg width="16" height="16" xmlns="http://www.w3.org/2000/svg">
 <g fill="#474747" font-family="sans-serif" font-weight="400">
  <path d="M6.508 1C3.48 1 1.002 3.474 1.002 6.5S3.48 12 6.508 12s5.505-2.474 5.505-5.5S9.536 1 6.508 1zm0 2a3.488 3.488 0 013.505 3.5c0 1.944-1.557 3.5-3.505 3.5a3.488 3.488 0 01-3.506-3.5c0-1.944 1.557-3.5 3.506-3.5z" overflow="visible" style="font-feature-settings:normal;font-variant-alternates:normal;font-variant-caps:normal;font-variant-ligatures:normal;font-variant-numeric:normal;font-variant-position:normal;isolation:auto;mix-blend-mode:normal;shape-padding:0;text-decoration-color:#000;text-decoration-line:none;text-decoration-style:solid;text-indent:0;text-orientation:mixed;text-transform:none"/>
  <path d="M10 8.99a1 1 0 00-.696 1.717l4.004 4a1 1 0 101.414-1.414l-4.003-4a1 1 0 00-.72-.303z" overflow="visible" style="font-feature-settings:normal;font-variant-alternates:normal;font-variant-caps:normal;font-variant-ligatures:normal;font-variant-numeric:normal;font-variant-position:normal;isolation:auto;mix-blend-mode:normal;shape-padding:0;text-decoration-color:#000;text-decoration-line:none;text-decoration-style:solid;text-indent:0;text-orientation:mixed;text-transform:none"/>
 </g>
</svg>
