<?xml version="1.0" encoding="UTF-8"?>
<svg width="16" height="16" xmlns="http://www.w3.org/2000/svg">
 <path d="M4 6v2h6.5c.84 0 1.5.66 1.5 1.5s-.66 1.5-1.5 1.5H10v2h.5c1.921 0 3.5-1.579 3.5-3.5S12.421 6 10.5 6z" fill="#474747" font-family="sans-serif" font-weight="400" overflow="visible" style="font-feature-settings:normal;font-variant-alternates:normal;font-variant-caps:normal;font-variant-ligatures:normal;font-variant-numeric:normal;font-variant-position:normal;isolation:auto;mix-blend-mode:normal;shape-padding:0;text-decoration-color:#000;text-decoration-line:none;text-decoration-style:solid;text-indent:0;text-orientation:mixed;text-transform:none"/>
 <path d="M7 3.022v1c0 .257-.13.529-.313.719l-2.28 2.281 2.28 2.281c.183.19.313.462.313.72v1H6c-.31 0-.552-.091-.75-.282L1.594 7.022 5.25 3.303c.198-.19.44-.28.75-.28z" color="#bebebe" fill="#474747" font-family="Bitstream Vera Sans" font-weight="400" overflow="visible" style="text-decoration-line:none;text-indent:0;text-transform:none"/>
</svg>
