<?xml version="1.0" encoding="UTF-8"?>
<svg width="16" height="16" xmlns="http://www.w3.org/2000/svg">
 <path d="M5.5 6A3.515 3.515 0 002 9.5C2 11.421 3.58 13 5.5 13H6v-2h-.5C4.66 11 4 10.34 4 9.5S4.66 8 5.5 8H12V6z" fill="#474747" font-family="sans-serif" font-weight="400" overflow="visible" style="font-feature-settings:normal;font-variant-alternates:normal;font-variant-caps:normal;font-variant-ligatures:normal;font-variant-numeric:normal;font-variant-position:normal;isolation:auto;mix-blend-mode:normal;shape-padding:0;text-decoration-color:#000;text-decoration-line:none;text-decoration-style:solid;text-indent:0;text-orientation:mixed;text-transform:none"/>
 <path d="M9 3v1c0 .257.13.528.313.719L11.593 7l-2.28 2.281C9.13 9.471 9 9.743 9 10v1h1c.31 0 .552-.09.75-.281L14.406 7 10.75 3.281C10.552 3.091 10.31 3 10 3z" color="#bebebe" fill="#474747" font-family="Bitstream Vera Sans" font-weight="400" overflow="visible" style="text-decoration-line:none;text-indent:0;text-transform:none"/>
</svg>
