<?xml version="1.0" encoding="UTF-8"?>
<svg width="16" height="16" xmlns="http://www.w3.org/2000/svg">
 <g fill="#474747" font-weight="400">
  <path d="M2 0v2h6c.428 0 1 .614 1 1v1H4c-.92 0-1.735.384-2.25.969A3.017 3.017 0 001 7c.006.72.269 1.453.781 2.031.513.579 1.31.969 2.22.969h7V3a3 3 0 00-3-3zm2 6h5v2H4c-.398 0-.567-.11-.719-.281A1.144 1.144 0 013.001 7c-.003-.28.104-.554.25-.719C3.394 6.116 3.577 6 4 6z" font-family="Sans" font-size="xx-small" overflow="visible" style="text-decoration-line:none;text-indent:0;text-transform:none"/>
  <path d="M12 15h1c.265 0 .53-.093.719-.281l2-2 .281-.282v-.874l-.281-.282-2-2A1.015 1.015 0 0013 9h-1v1c0 .265.093.53.281.719L13.562 12l-1.28 1.281A1.015 1.015 0 0012 14v1z" font-family="Bitstream Vera Sans" overflow="visible" style="text-decoration-line:none;text-indent:0;text-transform:none"/>
  <path d="M.938 11v2H14v-2z" font-family="sans-serif" overflow="visible" style="font-feature-settings:normal;font-variant-alternates:normal;font-variant-caps:normal;font-variant-ligatures:normal;font-variant-numeric:normal;font-variant-position:normal;isolation:auto;mix-blend-mode:normal;shape-padding:0;text-decoration-color:#000;text-decoration-line:none;text-decoration-style:solid;text-indent:0;text-orientation:mixed;text-transform:none"/>
 </g>
</svg>
