<?xml version="1.0" encoding="UTF-8"?>
<svg width="16" height="16" xmlns="http://www.w3.org/2000/svg">
 <g fill="#474747">
  <path d="M2 0v9h12V0zm2 2h8v5H4z" font-family="Sans" font-weight="400" overflow="visible" style="text-decoration-line:none;text-indent:0;text-transform:none"/>
  <path d="M5 5c2.32 1 3.045-1.66 6 0v1H5z" opacity=".35" overflow="visible"/>
  <path d="M11.003 11.039h-1c-.258 0-.53.13-.72.313L8 12.634l-1.283-1.282c-.19-.183-.462-.313-.72-.313h-1v1.001c0 .31.09.553.281.75L8 15.45l2.722-2.66c.191-.197.281-.44.281-.75v-1.001z" color="#bebebe" font-family="Bitstream Vera Sans" font-weight="400" overflow="visible" style="text-decoration-line:none;text-indent:0;text-transform:none"/>
 </g>
</svg>
