<?xml version="1.0" encoding="UTF-8"?>
<svg width="16" height="16" xmlns="http://www.w3.org/2000/svg">
 <path d="M9 7V6c0-.265-.093-.53-.281-.719l-3-3L5.438 2h-.875l-.282.281-3 3a1.015 1.015 0 00-.28.719L1 7h1c.265 0 .53-.093.719-.281L5 4.438l2.281 2.28c.188.189.454.282.72.282h1z" fill="#474747" font-family="Bitstream Vera Sans" font-weight="400" overflow="visible" style="text-decoration-line:none;text-indent:0;text-transform:none"/>
 <path d="M4 4v7h2V4z" fill="#474747" font-family="sans-serif" font-weight="400" overflow="visible" style="font-feature-settings:normal;font-variant-alternates:normal;font-variant-caps:normal;font-variant-ligatures:normal;font-variant-numeric:normal;font-variant-position:normal;isolation:auto;mix-blend-mode:normal;shape-padding:0;text-decoration-color:#000;text-decoration-line:none;text-decoration-style:solid;text-indent:0;text-orientation:mixed;text-transform:none"/>
 <path d="M15 8v1c0 .265-.093.53-.281.719l-3 3-.281.281h-.875l-.282-.281-3-3A1.015 1.015 0 017.001 9L7 8h1c.265 0 .53.093.719.281L11 10.562l2.281-2.28c.188-.189.454-.282.72-.282h1z" fill="#474747" font-family="Bitstream Vera Sans" font-weight="400" overflow="visible" style="text-decoration-line:none;text-indent:0;text-transform:none"/>
 <path d="M10 4v7h2V4z" fill="#474747" font-family="sans-serif" font-weight="400" overflow="visible" style="font-feature-settings:normal;font-variant-alternates:normal;font-variant-caps:normal;font-variant-ligatures:normal;font-variant-numeric:normal;font-variant-position:normal;isolation:auto;mix-blend-mode:normal;shape-padding:0;text-decoration-color:#000;text-decoration-line:none;text-decoration-style:solid;text-indent:0;text-orientation:mixed;text-transform:none"/>
</svg>
