<?xml version="1.0" encoding="UTF-8"?>
<svg width="16" height="16" xmlns="http://www.w3.org/2000/svg">
 <g fill="#2e3436">
  <path d="M7.987 3a1 1 0 00-.692.293l-4 4A1 1 0 004.002 9h8a1 1 0 00.707-1.707l-4-4A1 1 0 007.987 3zm.015 2.414L9.588 7H6.416zm-5 5.584l-.004 2 1 .002 8 .014 1 .002.004-2-1-.002-8-.014z" font-family="sans-serif" font-weight="400" overflow="visible" style="font-feature-settings:normal;font-variant-alternates:normal;font-variant-caps:normal;font-variant-ligatures:normal;font-variant-numeric:normal;font-variant-position:normal;isolation:auto;mix-blend-mode:normal;shape-padding:0;text-decoration-color:#000;text-decoration-line:none;text-decoration-style:solid;text-indent:0;text-orientation:mixed;text-transform:none;white-space:normal"/>
  <path d="M12 8v1h1V8zM3.002 8v1h1V8zm1 0l4-4 4 4z" overflow="visible"/>
 </g>
</svg>
