<?xml version="1.0" encoding="UTF-8"?>
<svg width="16.002" height="16" xmlns="http://www.w3.org/2000/svg">
 <g fill="#474747">
  <path d="m8.002 5-5 3 5 3zm7 0-5 3 5 3z" overflow="visible"/>
  <path d="M7.973 4a1 1 0 00-.484.143l-5 3a1 1 0 000 1.714l5 3A1 1 0 009.002 11V5a1 1 0 00-1.029-1zm-.97 2.766v2.468L4.945 8z" font-family="sans-serif" font-weight="400" overflow="visible" style="font-feature-settings:normal;font-variant-alternates:normal;font-variant-caps:normal;font-variant-ligatures:normal;font-variant-numeric:normal;font-variant-position:normal;isolation:auto;mix-blend-mode:normal;shape-padding:0;text-decoration-color:#000;text-decoration-line:none;text-decoration-style:solid;text-indent:0;text-orientation:mixed;text-transform:none"/>
  <path d="M2 3.998l-2 .004.002 1 .014 6 .004 1 2-.004-.004-1-.014-6z" font-family="sans-serif" font-weight="400" overflow="visible" style="font-feature-settings:normal;font-variant-alternates:normal;font-variant-caps:normal;font-variant-ligatures:normal;font-variant-numeric:normal;font-variant-position:normal;isolation:auto;mix-blend-mode:normal;shape-padding:0;text-decoration-color:#000;text-decoration-line:none;text-decoration-style:solid;text-indent:0;text-orientation:mixed;text-transform:none"/>
  <path d="m8.002 11h1v1h-1zm0-7h1v1h-1z" overflow="visible"/>
  <path d="M14.973 4a1 1 0 00-.484.143l-5 3a1 1 0 000 1.714l5 3A1 1 0 0016.002 11V5a1 1 0 00-1.029-1zm-.97 2.766v2.468L11.945 8z" font-family="sans-serif" font-weight="400" overflow="visible" style="font-feature-settings:normal;font-variant-alternates:normal;font-variant-caps:normal;font-variant-ligatures:normal;font-variant-numeric:normal;font-variant-position:normal;isolation:auto;mix-blend-mode:normal;shape-padding:0;text-decoration-color:#000;text-decoration-line:none;text-decoration-style:solid;text-indent:0;text-orientation:mixed;text-transform:none"/>
  <path d="m15.002 11h1v1h-1zm0-7h1v1h-1z" overflow="visible"/>
 </g>
</svg>
