<?xml version="1.0" encoding="UTF-8"?>
<svg width="16" height="16" xmlns="http://www.w3.org/2000/svg">
 <g fill="#474747" font-weight="400">
  <path d="M7 3v10h2V3z" font-family="sans-serif" overflow="visible" style="font-feature-settings:normal;font-variant-alternates:normal;font-variant-caps:normal;font-variant-ligatures:normal;font-variant-numeric:normal;font-variant-position:normal;isolation:auto;mix-blend-mode:normal;shape-padding:0;text-decoration-color:#000;text-decoration-line:none;text-decoration-style:solid;text-indent:0;text-orientation:mixed;text-transform:none"/>
  <path d="M4 10v1c0 .265.093.53.281.719l3.72 3.719 3.718-3.72c.188-.187.281-.453.281-.718v-1h-1c-.265 0-.53.093-.719.281l-2.28 2.281-2.282-2.28A1.015 1.015 0 005 10zm0-4V5c0-.265.093-.53.282-.719L8 .562l3.719 3.72c.188.187.281.453.281.718v1h-1c-.265 0-.53-.093-.718-.281L8 3.437 5.72 5.72A1.015 1.015 0 015 6z" font-family="Bitstream Vera Sans" overflow="visible" style="text-decoration-line:none;text-indent:0;text-transform:none"/>
 </g>
</svg>
