<?xml version="1.0" encoding="UTF-8"?>
<svg width="16" height="16" xmlns="http://www.w3.org/2000/svg">
 <g fill="#474747" font-weight="400">
  <path d="M3 7v2h10V7z" font-family="sans-serif" overflow="visible" style="font-feature-settings:normal;font-variant-alternates:normal;font-variant-caps:normal;font-variant-ligatures:normal;font-variant-numeric:normal;font-variant-position:normal;isolation:auto;mix-blend-mode:normal;shape-padding:0;text-decoration-color:#000;text-decoration-line:none;text-decoration-style:solid;text-indent:0;text-orientation:mixed;text-transform:none"/>
  <path d="M10 4v1c0 .257.13.528.313.719L12.593 8l-2.28 2.281c-.183.19-.313.462-.313.719v1h1c.31 0 .552-.09.75-.281L15.406 8 11.75 4.281C11.552 4.091 11.31 4 11 4zM6 4v1c0 .257-.13.528-.312.719L3.406 8l2.282 2.281c.182.19.312.462.312.719v1H5c-.31 0-.552-.09-.75-.281L.594 8 4.25 4.281C4.448 4.091 4.69 4 5 4z" color="#bebebe" font-family="Bitstream Vera Sans" overflow="visible" style="text-decoration-line:none;text-indent:0;text-transform:none"/>
 </g>
</svg>
