<?xml version="1.0" encoding="UTF-8"?>
<svg width="16" height="16" xmlns="http://www.w3.org/2000/svg">
 <g fill="#474747">
  <path d="m8 1c-2.203 0-4 1.797-4 4s1.797 4 4 4 4-1.797 4-4-1.797-4-4-4zm0 1.066a2.926 2.926 0 0 1 2.934 2.934 2.926 2.926 0 0 1-2.934 2.934 2.926 2.926 0 0 1-2.933-2.934 2.926 2.926 0 0 1 2.933-2.934z" font-family="sans-serif" font-weight="400" overflow="visible" style="font-feature-settings:normal;font-variant-alternates:normal;font-variant-caps:normal;font-variant-ligatures:normal;font-variant-numeric:normal;font-variant-position:normal;isolation:auto;mix-blend-mode:normal;shape-padding:0;text-decoration-color:#000;text-decoration-line:none;text-decoration-style:solid;text-indent:0;text-orientation:mixed;text-transform:none"/>
  <path d="m4 8c-2.203 0-4 1.797-4 4s1.797 4 4 4 4-1.797 4-4-1.797-4-4-4zm0 1.066a2.926 2.926 0 0 1 2.934 2.934 2.926 2.926 0 0 1-2.934 2.934 2.926 2.926 0 0 1-2.933-2.934 2.926 2.926 0 0 1 2.933-2.934z" font-family="sans-serif" font-weight="400" overflow="visible" style="font-feature-settings:normal;font-variant-alternates:normal;font-variant-caps:normal;font-variant-ligatures:normal;font-variant-numeric:normal;font-variant-position:normal;isolation:auto;mix-blend-mode:normal;shape-padding:0;text-decoration-color:#000;text-decoration-line:none;text-decoration-style:solid;text-indent:0;text-orientation:mixed;text-transform:none"/>
  <path d="M15.998 12A4 4 0 0112 16a4 4 0 01-4-4 4 4 0 014-4 4 4 0 013.998 4z" overflow="visible"/>
  <path d="M7.467 12A3.467 3.467 0 014 15.467 3.467 3.467 0 01.534 12 3.467 3.467 0 014 8.533 3.467 3.467 0 017.467 12z" opacity=".5" overflow="visible"/>
 </g>
</svg>
