<?xml version="1.0" encoding="UTF-8"?>
<svg width="16" height="16" xmlns="http://www.w3.org/2000/svg">
 <g fill="#474747" fill-rule="evenodd">
  <path d="M3 9h1v1H3zm-1 1h1v1H2zm1 1h1v1H3zm-1 1h1v1H2zm1 1h1v1H3zm-1 1h1v1H2zm2 0h1v1H4zm2 0h1v1H6zm2 0h1v1H8zm2 0h1v1h-1zm-7 1h1v1H3zm2 0h1v1H5zm2 0h1v1H7zm2 0h1v1H9zm2 0h1v1h-1zm1-1h1v1h-1z" overflow="visible"/>
  <path d="M3 1a1 1 0 00-1 1v7h2V3h5.086L12 5.914V14h2V5.5a1 1 0 00-.293-.707l-3.5-3.5A1 1 0 009.5 1z" font-family="sans-serif" font-weight="400" overflow="visible" style="font-feature-settings:normal;font-variant-alternates:normal;font-variant-caps:normal;font-variant-ligatures:normal;font-variant-numeric:normal;font-variant-position:normal;isolation:auto;mix-blend-mode:normal;shape-padding:0;text-decoration-color:#000;text-decoration-line:none;text-decoration-style:solid;text-indent:0;text-orientation:mixed;text-transform:none"/>
  <path d="m9 2v4h4z"/>
 </g>
</svg>
