<?xml version="1.0" encoding="UTF-8"?>
<svg width="16" height="16" xmlns="http://www.w3.org/2000/svg">
 <g fill="#474747">
  <path d="M1.5 14h13c.277 0 .5.223.5.5v1c0 .277-.223.5-.5.5h-13a.499.499 0 01-.5-.5v-1c0-.277.223-.5.5-.5z" overflow="visible"/>
  <path d="M5 0C3.91 0 3 .91 3 2v8c0 1.09.91 2 2 2h6c1.09 0 2-.91 2-2V2c0-1.09-.91-2-2-2zm0 2h6v8H5z" font-family="sans-serif" font-weight="400" overflow="visible" style="font-feature-settings:normal;font-variant-alternates:normal;font-variant-caps:normal;font-variant-ligatures:normal;font-variant-numeric:normal;font-variant-position:normal;isolation:auto;mix-blend-mode:normal;shape-padding:0;text-decoration-color:#000;text-decoration-line:none;text-decoration-style:solid;text-indent:0;text-orientation:mixed;text-transform:none"/>
  <path d="M6 3h4v1H6zm3 2h1v1H9zm-2 6h2v4H7z" overflow="visible"/>
 </g>
</svg>
